<svg width="180" height="180" viewBox="0 0 180 180" fill="none" xmlns="http://www.w3.org/2000/svg">
    <g id="customer-centric">
        <path id="body"
            d="M118 118.382V111.519C118 107.879 116.525 104.388 113.899 101.814C111.274 99.24 107.713 97.7939 104 97.7939H75.9996C72.2865 97.7939 68.7256 99.24 66.1 101.814C63.4745 104.388 61.9995 107.879 61.9995 111.519V118.382"
            stroke="url(#paint0_linear_1081_33)" stroke-width="6.22894" stroke-linecap="round"
            stroke-linejoin="round" />
        <path id="circle"
            d="M90.0001 84.6173C97.7321 84.6173 104 78.3493 104 70.6173C104 62.8852 97.7321 56.6172 90.0001 56.6172C82.268 56.6172 76 62.8852 76 70.6173C76 78.3493 82.268 84.6173 90.0001 84.6173Z"
            stroke="url(#paint1_linear_1081_33)" stroke-width="6.22894" stroke-linecap="round"
            stroke-linejoin="round" />
        <path id="arrow-top-left"
            d="M25.1213 20.8787C23.9497 19.7071 22.0503 19.7071 20.8787 20.8787C19.7071 22.0503 19.7071 23.9497 20.8787 25.1213L25.1213 20.8787ZM51.2843 54.2843C52.9411 54.2843 54.2843 52.9411 54.2843 51.2843V24.2843C54.2843 22.6274 52.9411 21.2843 51.2843 21.2843C49.6274 21.2843 48.2843 22.6274 48.2843 24.2843V48.2843H24.2843C22.6274 48.2843 21.2843 49.6274 21.2843 51.2843C21.2843 52.9411 22.6274 54.2843 24.2843 54.2843H51.2843ZM20.8787 25.1213L49.163 53.4056L53.4056 49.163L25.1213 20.8787L20.8787 25.1213Z"
            fill="url(#paint2_linear_1081_33)" />
        <path id="arrow-top-right"
            d="M158.335 25.1213C159.506 23.9497 159.506 22.0503 158.335 20.8787C157.163 19.7071 155.264 19.7071 154.092 20.8787L158.335 25.1213ZM124.929 51.2843C124.929 52.9411 126.272 54.2843 127.929 54.2843H154.929C156.586 54.2843 157.929 52.9411 157.929 51.2843C157.929 49.6274 156.586 48.2843 154.929 48.2843H130.929V24.2843C130.929 22.6274 129.586 21.2843 127.929 21.2843C126.272 21.2843 124.929 22.6274 124.929 24.2843V51.2843ZM154.092 20.8787L125.808 49.163L130.05 53.4056L158.335 25.1213L154.092 20.8787Z"
            fill="url(#paint3_linear_1081_33)" />
        <path id="arrow-bottom-left"
            d="M21.8787 153.879C20.7071 155.05 20.7071 156.95 21.8787 158.121C23.0503 159.293 24.9497 159.293 26.1213 158.121L21.8787 153.879ZM48.2132 134.787C48.2132 133.13 46.8701 131.787 45.2132 131.787H18.2132C16.5563 131.787 15.2132 133.13 15.2132 134.787C15.2132 136.444 16.5563 137.787 18.2132 137.787H42.2132V161.787C42.2132 163.444 43.5563 164.787 45.2132 164.787C46.8701 164.787 48.2132 163.444 48.2132 161.787L48.2132 134.787ZM26.1213 158.121L47.3345 136.908L43.0919 132.665L21.8787 153.879L26.1213 158.121Z"
            fill="url(#paint4_linear_1081_33)" />
        <path id="arrow-bottom-right"
            d="M155.092 158.121C156.264 159.293 158.163 159.293 159.335 158.121C160.506 156.95 160.506 155.05 159.335 153.879L155.092 158.121ZM136 131.787C134.343 131.787 133 133.13 133 134.787V161.787C133 163.444 134.343 164.787 136 164.787C137.657 164.787 139 163.444 139 161.787V137.787H163C164.657 137.787 166 136.444 166 134.787C166 133.13 164.657 131.787 163 131.787H136ZM159.335 153.879L138.121 132.665L133.879 136.908L155.092 158.121L159.335 153.879Z"
            fill="url(#paint5_linear_1081_33)" />
    </g>
    <defs>
        <linearGradient id="paint0_linear_1081_33" x1="89.9996" y1="97.7939" x2="89.9996"
            y2="136.183" gradientUnits="userSpaceOnUse">
            <stop stop-color="#FF6600" />
            <stop offset="1" stop-color="#FFB800" />
        </linearGradient>
        <linearGradient id="paint1_linear_1081_33" x1="90.0001" y1="56.6172" x2="90.0001"
            y2="108.826" gradientUnits="userSpaceOnUse">
            <stop stop-color="#FF6600" />
            <stop offset="1" stop-color="#FFB800" />
        </linearGradient>
        <linearGradient id="paint2_linear_1081_33" x1="37.1421" y1="37.1421" x2="35.8237"
            y2="38.4606" gradientUnits="userSpaceOnUse">
            <stop stop-color="#FF6600" />
            <stop offset="1" stop-color="#FFB800" />
        </linearGradient>
        <linearGradient id="paint3_linear_1081_33" x1="142.071" y1="37.1421" x2="140.753"
            y2="35.8237" gradientUnits="userSpaceOnUse">
            <stop stop-color="#FF6600" />
            <stop offset="1" stop-color="#FFB800" />
        </linearGradient>
        <linearGradient id="paint4_linear_1081_33" x1="34.6066" y1="145.393" x2="35.9251"
            y2="146.712" gradientUnits="userSpaceOnUse">
            <stop stop-color="#FF6600" />
            <stop offset="1" stop-color="#FFB800" />
        </linearGradient>
        <linearGradient id="paint5_linear_1081_33" x1="146.607" y1="145.393" x2="147.925"
            y2="144.075" gradientUnits="userSpaceOnUse">
            <stop stop-color="#FF6600" />
            <stop offset="1" stop-color="#FFB800" />
        </linearGradient>
    </defs>
</svg>