<svg width="180" height="180" viewBox="0 0 180 180" fill="none" xmlns="http://www.w3.org/2000/svg">
    <g id="digital">
        <path id="line-up"
            d="M54.5 56C52.8431 56 51.5 57.3431 51.5 59C51.5 60.6569 52.8431 62 54.5 62V56ZM70.5 59V62H72.1379L73.0235 60.6223L70.5 59ZM84 38V35H82.3621L81.4765 36.3777L84 38ZM94.5 38C94.5 46.8366 101.663 54 110.5 54C119.337 54 126.5 46.8366 126.5 38C126.5 29.1634 119.337 22 110.5 22C101.663 22 94.5 29.1634 94.5 38ZM54.5 62H70.5V56H54.5V62ZM73.0235 60.6223L86.5235 39.6223L81.4765 36.3777L67.9765 57.3777L73.0235 60.6223ZM84 41H110.5V35H84V41Z"
            fill="url(#paint0_linear_1081_34)" />
        <path id="line-down"
            d="M54.5 123.5C52.8431 123.5 51.5 122.157 51.5 120.5C51.5 118.843 52.8431 117.5 54.5 117.5V123.5ZM70.5 120.5V117.5H72.1379L73.0235 118.878L70.5 120.5ZM84 141.5V144.5H82.3621L81.4765 143.122L84 141.5ZM94.5 141.5C94.5 132.663 101.663 125.5 110.5 125.5C119.337 125.5 126.5 132.663 126.5 141.5C126.5 150.337 119.337 157.5 110.5 157.5C101.663 157.5 94.5 150.337 94.5 141.5ZM54.5 117.5H70.5V123.5H54.5V117.5ZM73.0235 118.878L86.5235 139.878L81.4765 143.122L67.9765 122.122L73.0235 118.878ZM84 138.5H110.5V144.5H84V138.5Z"
            fill="url(#paint1_linear_1081_34)" />
        <path id="line-center-up"
            d="M31 86.5C29.3431 86.5 28 87.8431 28 89.5C28 91.1569 29.3431 92.5 31 92.5V86.5ZM93.5 89.5V92.5H95.1056L95.9962 91.1641L93.5 89.5ZM107.5 68.5V65.5H105.894L105.004 66.8359L107.5 68.5ZM131.5 68.5C131.5 77.3366 138.663 84.5 147.5 84.5C156.337 84.5 163.5 77.3366 163.5 68.5C163.5 59.6634 156.337 52.5 147.5 52.5C138.663 52.5 131.5 59.6634 131.5 68.5ZM31 92.5H93.5V86.5H31V92.5ZM95.9962 91.1641L109.996 70.1641L105.004 66.8359L91.0038 87.8359L95.9962 91.1641ZM107.5 71.5H147.5V65.5H107.5V71.5Z"
            fill="url(#paint2_linear_1081_34)" />
        <path id="line-center-down"
            d="M31.5 92.5C29.8431 92.5 28.5 91.1569 28.5 89.5C28.5 87.8431 29.8431 86.5 31.5 86.5V92.5ZM93.7318 89.5V86.5H95.3411L96.2312 87.8409L93.7318 89.5ZM107.672 110.5V113.5H106.062L105.172 112.159L107.672 110.5ZM131.5 110.5C131.5 101.663 138.663 94.5 147.5 94.5C156.337 94.5 163.5 101.663 163.5 110.5C163.5 119.337 156.337 126.5 147.5 126.5C138.663 126.5 131.5 119.337 131.5 110.5ZM31.5 86.5H93.7318V92.5H31.5V86.5ZM96.2312 87.8409L110.171 108.841L105.172 112.159L91.2323 91.1591L96.2312 87.8409ZM107.672 107.5H147.5V113.5H107.672V107.5Z"
            fill="url(#paint3_linear_1081_34)" />
    </g>
    <defs>
        <linearGradient id="paint0_linear_1081_34" x1="82.5" y1="38" x2="82.5" y2="77.1562"
            gradientUnits="userSpaceOnUse">
            <stop stop-color="#FF6600" />
            <stop offset="1" stop-color="#FFB800" />
        </linearGradient>
        <linearGradient id="paint1_linear_1081_34" x1="82.5" y1="141.5" x2="82.5" y2="102.344"
            gradientUnits="userSpaceOnUse">
            <stop stop-color="#FF6600" />
            <stop offset="1" stop-color="#FFB800" />
        </linearGradient>
        <linearGradient id="paint2_linear_1081_34" x1="89.25" y1="68.5" x2="89.25" y2="107.656"
            gradientUnits="userSpaceOnUse">
            <stop stop-color="#FF6600" />
            <stop offset="1" stop-color="#FFB800" />
        </linearGradient>
        <linearGradient id="paint3_linear_1081_34" x1="89.5" y1="110.5" x2="89.5" y2="71.3438"
            gradientUnits="userSpaceOnUse">
            <stop stop-color="#FF6600" />
            <stop offset="1" stop-color="#FFB800" />
        </linearGradient>
    </defs>
</svg>