<svg width="126" height="154" viewBox="0 0 126 154" fill="none" xmlns="http://www.w3.org/2000/svg">
<rect x="33" y="60" width="60" height="60" fill="#231D19"/>
<path d="M102.284 100.852C100.424 99.8751 98.1887 99.942 96.3906 101.029C95.5158 101.557 94.8065 102.29 94.3087 103.144C90.5995 109.305 87.4104 113.312 84.8052 115.572L84.8047 115.572C82.1099 117.91 78.7436 119.874 74.5971 121.398C70.5184 122.896 66.353 123.639 62.0665 123.639C53.2889 123.639 46.1486 120.623 40.2542 114.525C35.6308 109.742 32.6788 103.855 31.5313 96.633H113.397C114.998 96.633 116.533 95.9934 117.659 94.8563C118.786 93.7192 119.412 92.179 119.397 90.5783C119.265 76.0663 115.333 63.5144 107.262 53.3262C96.0784 39.1275 80.939 31.993 62.4315 31.993C44.3888 31.993 29.6367 38.9854 18.7555 52.8926C10.2714 63.7067 6 76.1155 6 89.9114C6 104.657 11.0795 117.904 21.0084 129.442C31.3714 141.486 45.6825 147.286 63.1531 147.286C70.992 147.286 78.2115 146.092 84.7324 143.592L84.7375 143.59C91.1743 141.115 96.9723 137.506 102.1 132.787C107.311 127.992 111.748 121.833 115.492 114.483C116.983 111.556 115.844 107.975 112.936 106.448L102.284 100.852ZM87.4398 67.2992C88.8175 69.0201 90.0824 71.1429 91.1985 73.7149H34.8245C36.8046 69.4106 39.1454 66.1886 41.7399 63.877L41.7487 63.8691C47.5367 58.6916 54.3834 56.0967 62.6104 56.0967C67.5814 56.0967 72.2901 57.1364 76.8 59.2362C81.3766 61.3671 84.8621 64.078 87.4392 67.2984L87.4398 67.2992Z" fill="white" stroke="#231D19" stroke-width="12" stroke-linejoin="round"/>
<path d="M24.5911 30.5095H104.754C111.376 30.5095 116.745 25.1402 116.745 18.5183C116.745 11.8964 111.376 6.52707 104.754 6.52707H24.5911C17.9692 6.52707 12.5999 11.8964 12.5999 18.5183C12.5999 25.1402 17.9692 30.5095 24.5911 30.5095Z" fill="#FF6600" stroke="#231D19" stroke-width="12" stroke-linejoin="round"/>
</svg>
