<svg width="114" height="85" viewBox="0 0 114 85" fill="none" xmlns="http://www.w3.org/2000/svg">
<g clip-path="url(#clip0_987_237)">
<path d="M30.5435 68.5192L34.262 70.4726C33.0418 72.8678 31.633 74.8014 30.0351 76.2719C28.4368 77.7429 26.6383 78.8611 24.6405 79.6293C22.6415 80.3958 20.3815 80.78 17.8572 80.78C12.2625 80.78 7.888 78.9466 4.73247 75.2794C1.57694 71.6122 0 67.467 0 62.8455C0 58.4953 1.3357 54.6189 4.00709 51.2143C7.39359 46.8854 11.9255 44.7212 17.6053 44.7212C23.4519 44.7212 28.1207 46.9388 31.6116 51.3721C34.0931 54.5034 35.3544 58.4118 35.3972 63.0975H4.53849C4.62192 67.0803 5.89556 70.3468 8.35735 72.8937C10.8191 75.4405 13.8596 76.7142 17.4779 76.7142C19.2233 76.7142 20.9219 76.4104 22.5749 75.8034C24.2262 75.1964 25.6302 74.3905 26.7883 73.3856C27.9448 72.3824 29.1971 70.7594 30.5435 68.5196V68.5192ZM30.5435 59.2848C29.9545 56.9323 29.0972 55.05 27.9707 53.6428C26.8446 52.2356 25.3573 51.1004 23.5054 50.2382C21.6535 49.376 19.7079 48.9465 17.6678 48.9465C14.3014 48.9465 11.4085 50.0286 8.98862 52.1932C7.22057 53.7685 5.88487 56.1338 4.97989 59.286H30.5431V59.2844L30.5435 59.2848Z" fill="white"/>
<path d="M32.3797 40.0142H4.39545C3.24059 40.0142 2.30396 39.0775 2.30396 37.9227C2.30396 36.7678 3.24059 35.8312 4.39545 35.8312H32.3797C33.5346 35.8312 34.4712 36.7678 34.4712 37.9227C34.4712 39.0775 33.5346 40.0142 32.3797 40.0142Z" fill="#FF6600"/>
<path d="M100.072 0H54.6539C47.4198 0 41.5325 5.88446 41.5325 13.1215V71.8781C41.5325 79.1151 47.4202 84.9996 54.6539 84.9996H100.072C107.309 84.9996 113.193 79.1151 113.193 71.8781V13.1219C113.192 5.88487 107.309 0.000410983 100.072 0.000410983V0ZM109.009 71.8765C109.009 76.8033 105 80.8133 100.072 80.8133H54.6539C49.7271 80.8133 45.7171 76.8046 45.7171 71.8765V13.1215C45.7171 8.1946 49.7258 4.18463 54.6539 4.18463H100.072C104.999 4.18463 109.009 8.19337 109.009 13.1215V71.8765Z" fill="#FF6600"/>
<path d="M101.765 28.0093V45.5538L85.374 28.0093H101.765Z" fill="#FF6600"/>
<path d="M101.765 50.2818V74.1209H84.7651V32.0847L101.765 50.2818Z" fill="white"/>
<path d="M68.8463 44.6611V51.2546C68.8463 53.088 69.4656 54.5605 70.7968 55.8917C72.128 57.2257 73.603 57.8451 75.4368 57.8451H80.0131V73.7292H75.4368C69.3033 73.7292 63.9757 71.5555 59.5983 67.2665C55.1934 62.9544 52.9609 57.663 52.9609 51.5402V10.8791H68.8467V28.7787H80.0147V44.6611H68.8467H68.8463Z" fill="white"/>
</g>
<defs>
<clipPath id="clip0_987_237">
<rect width="113.194" height="85" fill="white"/>
</clipPath>
</defs>
</svg>
