<svg width="100" height="100" viewBox="0 0 100 100" fill="none" xmlns="http://www.w3.org/2000/svg">
<g id="outsourcing">
<path id="Vector" d="M57.4119 64.0002V60.9806C57.4119 59.3789 56.7612 57.8428 55.6029 56.7103C54.4446 55.5777 52.8736 54.9414 51.2355 54.9414H38.8825C37.2444 54.9414 35.6734 55.5777 34.5151 56.7103C33.3568 57.8428 32.7061 59.3789 32.7061 60.9806V64.0002M67.2942 64.0002V60.9137C67.2931 59.546 66.8073 58.2174 65.9129 57.1364C65.0186 56.0554 63.7664 55.2833 62.353 54.9414M56.5884 36C57.7663 36.3511 58.8103 37.1487 59.5558 38.2671C60.3014 39.3854 60.706 40.7608 60.706 42.1765C60.706 43.5922 60.3014 44.9676 59.5558 46.0859C58.8103 47.2042 57.7663 48.0018 56.5884 48.3529M51.6474 42.1765C51.6474 45.5876 48.8821 48.3529 45.4709 48.3529C42.0597 48.3529 39.2944 45.5876 39.2944 42.1765C39.2944 38.7653 42.0597 36 45.4709 36C48.8821 36 51.6474 38.7653 51.6474 42.1765Z" stroke="url(#paint0_linear_1091_104)" stroke-width="3" stroke-linecap="round" stroke-linejoin="round"/>
<path id="Vector_2" d="M47.0958 23.1286C47.0958 23.8843 47.7084 24.4969 48.4641 24.4969C49.2197 24.4969 49.8323 23.8843 49.8323 23.1286H47.0958ZM49.4316 5.49638C48.8972 4.96205 48.0309 4.96205 47.4966 5.49638L38.7892 14.2038C38.2549 14.7381 38.2549 15.6044 38.7892 16.1388C39.3235 16.6731 40.1898 16.6731 40.7242 16.1388L48.4641 8.39885L56.204 16.1388C56.7383 16.6731 57.6046 16.6731 58.139 16.1388C58.6733 15.6044 58.6733 14.7381 58.139 14.2038L49.4316 5.49638ZM23.1286 49.8323C23.8843 49.8323 24.4969 49.2197 24.4969 48.4641C24.4969 47.7084 23.8843 47.0958 23.1286 47.0958V49.8323ZM5.49638 47.4966C4.96205 48.0309 4.96205 48.8972 5.49638 49.4316L14.2038 58.139C14.7381 58.6733 15.6044 58.6733 16.1388 58.139C16.6731 57.6046 16.6731 56.7383 16.1388 56.204L8.39885 48.4641L16.1388 40.7242C16.6731 40.1898 16.6731 39.3235 16.1388 38.7892C15.6044 38.2549 14.7381 38.2549 14.2038 38.7892L5.49638 47.4966ZM76.156 49.4518C75.4003 49.4518 74.7877 50.0644 74.7877 50.82C74.7877 51.5757 75.4003 52.1883 76.156 52.1883V49.4518ZM93.7882 51.7875C94.3226 51.2532 94.3226 50.3869 93.7882 49.8525L85.0808 41.1451C84.5465 40.6108 83.6802 40.6108 83.1458 41.1451C82.6115 41.6795 82.6115 42.5458 83.1458 43.0801L90.8858 50.82L83.1458 58.56C82.6115 59.0943 82.6115 59.9606 83.1458 60.4949C83.6802 61.0293 84.5465 61.0293 85.0808 60.4949L93.7882 51.7875ZM52.1888 76.1555C52.1888 75.3998 51.5762 74.7872 50.8205 74.7872C50.0649 74.7872 49.4523 75.3998 49.4523 76.1555H52.1888ZM49.853 93.7877C50.3874 94.3221 51.2537 94.3221 51.788 93.7877L60.4954 85.0803C61.0298 84.546 61.0298 83.6797 60.4954 83.1454C59.9611 82.611 59.0948 82.611 58.5604 83.1454L50.8205 90.8853L43.0806 83.1454C42.5463 82.611 41.68 82.611 41.1456 83.1454C40.6113 83.6797 40.6113 84.546 41.1456 85.0803L49.853 93.7877ZM49.8323 23.1286V6.46387H47.0958V23.1286H49.8323ZM23.1286 47.0958H6.46387V49.8323H23.1286V47.0958ZM76.156 52.1883H92.8207V49.4518H76.156V52.1883ZM49.4523 76.1555V92.8203H52.1888V76.1555H49.4523Z" fill="url(#paint1_linear_1091_104)"/>
</g>
<defs>
<linearGradient id="paint0_linear_1091_104" x1="50.0001" y1="36" x2="50.0001" y2="88.2088" gradientUnits="userSpaceOnUse">
<stop stop-color="#FF6600"/>
<stop offset="1" stop-color="#FFB800"/>
</linearGradient>
<linearGradient id="paint1_linear_1091_104" x1="49.6423" y1="6.46387" x2="49.6423" y2="167.483" gradientUnits="userSpaceOnUse">
<stop stop-color="#FF6600"/>
<stop offset="1" stop-color="#FFB800"/>
</linearGradient>
</defs>
</svg>
