<svg width="75" height="75" viewBox="0 0 75 75" fill="none" xmlns="http://www.w3.org/2000/svg">
<g clip-path="url(#clip0_987_631)">
<path d="M37.5002 30.041C33.3598 30.041 30.0039 33.3975 30.0039 37.5373C30.0039 41.6777 33.3598 45.0335 37.5002 45.0335C41.6399 45.0335 44.9964 41.6777 44.9964 37.5373C44.9921 33.3993 41.6381 30.0453 37.5002 30.041ZM37.5002 42.5348C34.7397 42.5348 32.5027 40.2977 32.5027 37.5373C32.5027 34.7774 34.7397 32.5398 37.5002 32.5398C40.26 32.5398 42.4977 34.7774 42.4977 37.5373C42.4977 40.2977 40.26 42.5348 37.5002 42.5348Z" fill="#FF6600"/>
<path d="M13.762 7.55225C10.3116 7.55225 7.51514 10.3493 7.51514 13.7991C7.51514 17.2496 10.3116 20.046 13.762 20.046C17.2118 20.046 20.0089 17.2496 20.0089 13.7991C20.0046 10.3511 17.21 7.55652 13.762 7.55225ZM13.762 17.5473C11.6915 17.5473 10.0139 15.8696 10.0139 13.7991C10.0139 11.7292 11.6915 10.051 13.762 10.051C15.8319 10.051 17.5101 11.7292 17.5101 13.7991C17.5101 15.8696 15.8319 17.5473 13.762 17.5473Z" fill="#FF6600"/>
<path d="M74.9815 15.6536V11.9451C74.979 11.016 74.2878 10.2321 73.3661 10.115L70.882 9.8014L72.4187 7.82607C72.9884 7.09096 72.9238 6.04717 72.2674 5.38832L69.6442 2.76451C68.9853 2.11115 67.9434 2.0477 67.2101 2.61627L65.236 4.15419L64.9249 1.6713C64.8083 0.748302 64.0232 0.055899 63.0923 0.055899H59.3838C58.4541 0.0571192 57.6702 0.748912 57.5537 1.6713L57.2401 4.15419L55.266 2.61871C54.5315 2.04892 53.4877 2.11359 52.8288 2.77L50.205 5.3932C49.5486 6.05266 49.484 7.09584 50.0537 7.83095L51.5941 9.8014L49.1106 10.1113C48.187 10.2284 47.4952 11.0142 47.4952 11.9451V15.6536C47.497 16.5827 48.1882 17.366 49.1106 17.4837L51.5941 17.7936L50.0574 19.769C49.4876 20.5034 49.5523 21.5472 50.2087 22.2061L50.6369 22.6337L48.1046 25.1685L47.4098 24.4724C46.7089 23.7751 45.598 23.7062 44.8165 24.3126L42.0999 26.4307L41.6729 23.0156C41.5497 22.0334 40.7151 21.2965 39.725 21.2953H38.7496V9.87399C41.1861 9.24442 42.7747 6.90184 42.4574 4.40492C42.1408 1.90861 40.0166 0.0375977 37.5002 0.0375977C34.9831 0.0375977 32.8596 1.90861 32.5423 4.40492C32.2251 6.90184 33.8137 9.24442 36.2508 9.87399V21.2953H35.2747C34.2852 21.2965 33.4507 22.0334 33.3269 23.0156L32.8998 26.4307L30.1827 24.3162C29.3994 23.7129 28.2903 23.7825 27.5888 24.4791L26.8988 25.1697L24.3628 22.6337L24.7911 22.2061C25.4475 21.5472 25.5122 20.5034 24.9424 19.769L23.4057 17.7973L25.8922 17.4874C26.8146 17.3684 27.5052 16.5833 27.5052 15.6536V11.9451C27.5034 11.0166 26.8128 10.2333 25.8922 10.115L23.4057 9.8014L24.9424 7.82607C25.5122 7.09096 25.4475 6.04717 24.7911 5.38832L22.1679 2.76451C21.509 2.11115 20.4671 2.0477 19.7338 2.61627L17.7597 4.15419L17.4486 1.6713C17.332 0.748302 16.5469 0.055899 15.616 0.055899H11.9075C10.9778 0.0571192 10.1939 0.748912 10.0774 1.6713L9.7638 4.15419L7.79213 2.61871C7.05763 2.04892 6.01384 2.11359 5.35499 2.77L2.73118 5.3932C2.07477 6.05266 2.0101 7.09584 2.57989 7.83095L4.11782 9.8014L1.63188 10.1113C0.709485 10.2297 0.0189115 11.0154 0.0189115 11.9451V15.6536C0.0207415 16.5827 0.711925 17.366 1.63432 17.4837L4.11782 17.7936L2.58111 19.769C2.01132 20.5034 2.07599 21.5472 2.7324 22.2061L5.35621 24.8299C6.01506 25.4833 7.05641 25.5467 7.78969 24.9788L9.7638 23.4445L10.0749 25.9268C10.1914 26.8504 10.9772 27.5428 11.9075 27.5422H15.616C16.5457 27.5416 17.3296 26.8492 17.4461 25.9268L17.7597 23.4445L19.7338 24.98C20.4689 25.5498 21.5127 25.4851 22.1715 24.8287L22.5986 24.4004L25.1352 26.9364L24.444 27.6264C23.7455 28.3279 23.6765 29.4388 24.2829 30.2209L26.3955 32.9362L22.9786 33.3632C21.9965 33.4883 21.2601 34.3228 21.2583 35.3123V36.2878H9.8364C9.20744 33.8513 6.86425 32.2627 4.36794 32.5799C1.87101 32.8965 0 35.0207 0 37.5372C0 40.0542 1.87101 42.1778 4.36794 42.495C6.86425 42.8123 9.20744 41.2237 9.8364 38.7866H21.2583V39.7626C21.2662 40.0902 21.3584 40.4105 21.5267 40.6923C10.505 47.2406 4.61195 59.8661 6.67025 72.5197H1.26829V75.0185H73.7321V72.5197H68.3295C70.3884 59.8661 64.496 47.2412 53.4743 40.6923C53.6414 40.4105 53.7335 40.0902 53.7421 39.7626V38.7866H65.164C65.7929 41.2237 68.1355 42.8123 70.6325 42.495C73.1288 42.1778 74.9998 40.0542 74.9998 37.5372C74.9998 35.0207 73.1288 32.8965 70.6325 32.5799C68.1355 32.2627 65.7929 33.8513 65.164 36.2878H53.7421V35.3123C53.7396 34.3235 53.0045 33.4895 52.0242 33.3632L48.6079 32.9362L50.7224 30.2197C51.3275 29.437 51.258 28.3273 50.5595 27.6264L49.8726 26.9401C50.7211 26.0878 51.5654 25.2417 52.4049 24.4016L52.8349 24.8311C53.4938 25.4845 54.5351 25.5479 55.2684 24.98L57.2401 23.4445L57.5512 25.9268C57.6677 26.8504 58.4535 27.5428 59.3838 27.5422H63.0923C64.022 27.5416 64.8059 26.8492 64.9224 25.9268L65.236 23.4445L67.2101 24.98C67.9452 25.5498 68.989 25.4851 69.6478 24.8287L72.2716 22.2049C72.9274 21.546 72.9921 20.5022 72.4223 19.7677L70.882 17.7973L73.3685 17.4874C74.2909 17.3684 74.9815 16.5833 74.9815 15.6536ZM35.0014 5.0534C35.0014 3.67348 36.1203 2.55465 37.5002 2.55465C38.8801 2.55465 39.9989 3.67348 39.9989 5.0534C39.9989 6.43394 38.8801 7.55215 37.5002 7.55215C36.1203 7.55215 35.0014 6.43394 35.0014 5.0534ZM20.8111 22.6539L18.4521 20.8195C18.0745 20.526 17.5626 20.4736 17.1338 20.6846C16.844 20.8274 16.5457 20.9531 16.2407 21.0592C15.7905 21.2148 15.4677 21.6125 15.4086 22.0853L15.034 25.0459H12.4852L12.11 22.0853C12.0509 21.6125 11.7282 21.2148 11.2779 21.0592C10.9729 20.9531 10.6746 20.8274 10.3848 20.6846C9.95597 20.4736 9.44414 20.526 9.06652 20.8195L6.71296 22.6539L4.90905 20.8481L6.74163 18.4909C7.03567 18.1133 7.08814 17.6021 6.87767 17.1726C6.73431 16.8828 6.60925 16.5845 6.5031 16.2795C6.34815 15.8274 5.94979 15.5041 5.47578 15.4449L2.51766 15.0759V12.5222L5.47944 12.1476C5.95345 12.0885 6.35181 11.7645 6.50676 11.3131C6.61291 11.0075 6.73797 10.7091 6.88133 10.42C7.0918 9.99051 7.03872 9.4799 6.74529 9.10289L4.90905 6.75055L6.71296 4.94481L9.0714 6.77923C9.44902 7.07266 9.96085 7.12512 10.3897 6.91405C10.6783 6.77007 10.9754 6.64502 11.2792 6.53887C11.7312 6.38453 12.0557 5.98616 12.1149 5.51216L12.4901 2.55099H15.0438L15.4183 5.51216C15.4781 5.98616 15.802 6.38453 16.2541 6.53887C16.5585 6.64502 16.8556 6.77007 17.1441 6.91405C17.573 7.12512 18.0848 7.07266 18.4618 6.77923L20.8209 4.94481L22.6248 6.75055L20.7819 9.10777C20.4884 9.48478 20.4354 9.99661 20.6458 10.4261C20.7898 10.7152 20.9148 11.0142 21.021 11.3192C21.1753 11.7706 21.5743 12.0946 22.0477 12.1537L25.0101 12.5289V15.0826L22.0477 15.4571C21.5743 15.5163 21.1753 15.8403 21.021 16.2917C20.9148 16.5973 20.7898 16.8956 20.6458 17.1848C20.436 17.6143 20.489 18.1249 20.7819 18.5019L22.615 20.8597L20.8111 22.6539ZM5.01642 40.0359C3.63649 40.0359 2.51766 38.9177 2.51766 37.5372C2.51766 36.1573 3.63649 35.0384 5.01642 35.0384C6.39634 35.0384 7.51517 36.1573 7.51517 37.5372C7.51517 38.9177 6.39634 40.0359 5.01642 40.0359ZM69.984 35.0384C71.3639 35.0384 72.4827 36.1573 72.4827 37.5372C72.4827 38.9177 71.3639 40.0359 69.984 40.0359C68.604 40.0359 67.4852 38.9177 67.4852 37.5372C67.4852 36.1573 68.604 35.0384 69.984 35.0384ZM66.2358 67.5222C66.234 69.198 66.0839 70.8708 65.7887 72.5197H9.21171C6.98199 60.054 13.2051 47.6036 24.5141 41.9039L26.3882 42.1388L24.2744 44.8553C23.6692 45.6374 23.7388 46.7477 24.4366 47.4486L27.5851 50.5971C28.286 51.2956 29.3969 51.3639 30.1784 50.7569L32.895 48.6443L33.322 52.0587C33.4458 53.0427 34.2828 53.7809 35.2747 53.7791H39.725C40.7151 53.7785 41.5497 53.0409 41.6729 52.0587L42.0999 48.6443L44.8177 50.7581C45.6004 51.3633 46.7101 51.2937 47.411 50.5958L50.5582 47.4486C51.2568 46.7471 51.3257 45.6362 50.7199 44.8535L48.6067 42.1388L50.4875 41.9039C60.1732 46.7629 66.2731 56.6865 66.2358 67.5222ZM51.2433 35.7882V39.2868L47.4702 39.7577C46.9962 39.8169 46.5972 40.1415 46.4429 40.5935C46.3142 40.9687 46.1616 41.3359 45.9859 41.6916C45.7755 42.1211 45.8279 42.6323 46.122 43.0099L48.4572 46.0083L45.978 48.4881L42.9796 46.1504C42.602 45.8564 42.0896 45.8045 41.6607 46.0156C41.3057 46.1919 40.9396 46.3444 40.5645 46.4731C40.1124 46.6275 39.7885 47.0258 39.7287 47.4999L39.2492 51.2803H35.7506L35.2796 47.5072C35.2204 47.0332 34.8959 46.6348 34.4439 46.4805C34.0693 46.3524 33.7033 46.1992 33.3482 46.0229C32.9187 45.8119 32.4069 45.8643 32.0287 46.1584L29.0303 48.4954L26.5431 46.0156L28.8778 43.0172C29.1718 42.6402 29.2249 42.1284 29.0144 41.6989C28.8381 41.3433 28.6856 40.9766 28.5569 40.6008C28.4026 40.1488 28.0042 39.8242 27.5302 39.7651L23.7571 39.2868V35.7882L27.5302 35.3172C28.0042 35.258 28.4026 34.9335 28.5569 34.4815C28.6856 34.1057 28.8381 33.739 29.0144 33.3834C29.2249 32.9539 29.1718 32.4421 28.8778 32.0651L26.5431 29.0667L29.0218 26.5868L32.0201 28.9239C32.3978 29.218 32.9102 29.2704 33.3397 29.0594C33.6947 28.8831 34.0607 28.7299 34.4353 28.6018C34.8874 28.4475 35.2119 28.0491 35.2711 27.5751L35.7506 23.794H39.2492L39.7202 27.5672C39.7793 28.0412 40.1039 28.4402 40.5559 28.5945C40.9311 28.7226 41.2971 28.8757 41.6516 29.0514C42.081 29.2631 42.5935 29.2106 42.9711 28.9166L45.9695 26.5789L48.4481 29.0594L46.1134 32.0577C45.8194 32.4347 45.7663 32.9466 45.9768 33.3754C46.1531 33.7317 46.3056 34.0983 46.4343 34.4741C46.5887 34.9262 46.987 35.2501 47.461 35.3099L51.2433 35.7882ZM72.4827 15.0759L69.5203 15.451C69.0463 15.5102 68.648 15.8342 68.493 16.2856C68.3875 16.5906 68.2618 16.8895 68.1184 17.1787C67.9086 17.6076 67.9611 18.1188 68.2545 18.4958L70.0877 20.853L68.2832 22.6587L65.9247 20.8243C65.5471 20.5309 65.0353 20.4784 64.6064 20.6895C64.3166 20.8329 64.0183 20.9579 63.7133 21.0641C63.2631 21.2196 62.9404 21.6174 62.8812 22.0902L62.506 25.0513H59.9615L59.5863 22.0902C59.5272 21.6174 59.2044 21.2196 58.7542 21.0641C58.4492 20.9585 58.1515 20.8335 57.8623 20.6895C57.4329 20.4784 56.9204 20.5303 56.5428 20.8243L54.1844 22.6587L52.3798 20.853L54.213 18.4958C54.5101 18.1182 54.565 17.6039 54.354 17.1726C54.2106 16.8828 54.0855 16.5845 53.9794 16.2795C53.8244 15.8274 53.4261 15.5041 52.9521 15.4449L49.994 15.0759V12.5222L52.9557 12.1476C53.4297 12.0885 53.8281 11.7645 53.9831 11.3131C54.0892 11.0075 54.2143 10.7091 54.3576 10.42C54.5681 9.99051 54.515 9.4799 54.2216 9.10289L52.3853 6.75055L54.1892 4.94481L56.5477 6.77923C56.9253 7.07266 57.4371 7.12512 57.866 6.91405C58.1546 6.77007 58.4516 6.64502 58.7554 6.53887C59.2075 6.38453 59.532 5.98616 59.5912 5.51216L59.9664 2.55099H62.52L62.8946 5.51216C62.9544 5.98616 63.2783 6.38453 63.7304 6.53887C64.0342 6.64502 64.3313 6.77007 64.6192 6.91405C65.0481 7.12512 65.5605 7.07266 65.9381 6.77923L68.2972 4.94481L70.1011 6.75055L68.2581 9.10777C67.9647 9.48478 67.9116 9.99661 68.1221 10.4261C68.2661 10.7152 68.3911 11.0142 68.4973 11.3192C68.6516 11.7706 69.0506 12.0946 69.524 12.1537L72.4864 12.5289L72.4827 15.0759Z" fill="#FF6600"/>
<path d="M61.2383 7.55225C57.7879 7.55225 54.9915 10.3493 54.9915 13.7991C54.9915 17.2496 57.7879 20.046 61.2383 20.046C64.6882 20.046 67.4852 17.2496 67.4852 13.7991C67.481 10.3511 64.6863 7.55652 61.2383 7.55225ZM61.2383 17.5473C59.1678 17.5473 57.4902 15.8696 57.4902 13.7991C57.4902 11.7292 59.1678 10.051 61.2383 10.051C63.3082 10.051 64.9865 11.7292 64.9865 13.7991C64.9865 15.8696 63.3082 17.5473 61.2383 17.5473Z" fill="#FF6600"/>
<path d="M17.5103 67.5225H28.7546V70.0212H17.5103V67.5225Z" fill="#FF6600"/>
<path d="M22.4136 60.026C19.4903 60.3134 16.8488 61.894 15.2151 64.3354L17.3063 65.7098C18.5197 63.9236 20.456 62.7597 22.6021 62.5248C25.143 62.3668 27.5722 63.5869 28.9631 65.7184L31.0446 64.3366C29.1583 61.445 25.8586 59.7967 22.4136 60.026Z" fill="#FF6600"/>
<path d="M46.2458 67.5225H57.4902V70.0212H46.2458V67.5225Z" fill="#FF6600"/>
<path d="M43.9558 64.333L46.0373 65.7148C47.4288 63.5839 49.8586 62.3656 52.3989 62.5248C54.5456 62.7603 56.4807 63.9255 57.6941 65.7123L59.7853 64.3379C58.1522 61.8959 55.5113 60.314 52.5874 60.0261C49.1437 59.7967 45.8433 61.4432 43.9558 64.333Z" fill="#FF6600"/>
</g>
<defs>
<clipPath id="clip0_987_631">
<rect width="75" height="75" fill="white"/>
</clipPath>
</defs>
</svg>
