<svg width="100" height="100" viewBox="0 0 100 100" fill="none" xmlns="http://www.w3.org/2000/svg">
<g id="web-development">
<rect id="Rectangle 68" x="11.5" y="17.5" width="77" height="61" rx="6.5" stroke="url(#paint0_linear_1091_103)" stroke-width="3"/>
<line id="Line 1" x1="10" y1="28.5" x2="88" y2="28.5" stroke="url(#paint1_linear_1091_103)" stroke-width="3"/>
<rect id="Rectangle 70" x="17" y="21" width="6" height="4" rx="2" fill="url(#paint2_linear_1091_103)"/>
<rect id="Rectangle 71" x="25" y="21" width="6" height="4" rx="2" fill="url(#paint3_linear_1091_103)"/>
<rect id="Rectangle 72" x="33" y="21" width="6" height="4" rx="2" fill="url(#paint4_linear_1091_103)"/>
<g id="&#60;/&#62;">
<path d="M39.9713 60.2047V64.8907L26 58.0779V54.257L39.9713 47.4802V52.1663L30.8264 56.2035L39.9713 60.2047Z" fill="url(#paint5_linear_1091_103)"/>
<path d="M57.1301 38L46.7877 69H42.3604L52.7028 38H57.1301Z" fill="url(#paint6_linear_1091_103)"/>
<path d="M59.0287 64.8907V60.2047L68.1736 56.2035L59.0287 52.1663V47.4802L73 54.257V58.0779L59.0287 64.8907Z" fill="url(#paint7_linear_1091_103)"/>
</g>
</g>
<defs>
<linearGradient id="paint0_linear_1091_103" x1="50" y1="16" x2="50" y2="135.333" gradientUnits="userSpaceOnUse">
<stop stop-color="#FF6600"/>
<stop offset="1" stop-color="#FFB800"/>
</linearGradient>
<linearGradient id="paint1_linear_1091_103" x1="49" y1="30" x2="49" y2="31.8646" gradientUnits="userSpaceOnUse">
<stop stop-color="#FF6600"/>
<stop offset="1" stop-color="#FFB800"/>
</linearGradient>
<linearGradient id="paint2_linear_1091_103" x1="20" y1="21" x2="20" y2="28.4583" gradientUnits="userSpaceOnUse">
<stop stop-color="#FF6600"/>
<stop offset="1" stop-color="#FFB800"/>
</linearGradient>
<linearGradient id="paint3_linear_1091_103" x1="28" y1="21" x2="28" y2="28.4583" gradientUnits="userSpaceOnUse">
<stop stop-color="#FF6600"/>
<stop offset="1" stop-color="#FFB800"/>
</linearGradient>
<linearGradient id="paint4_linear_1091_103" x1="36" y1="21" x2="36" y2="28.4583" gradientUnits="userSpaceOnUse">
<stop stop-color="#FF6600"/>
<stop offset="1" stop-color="#FFB800"/>
</linearGradient>
<linearGradient id="paint5_linear_1091_103" x1="49.5" y1="38" x2="49.5" y2="95.8021" gradientUnits="userSpaceOnUse">
<stop stop-color="#FF6600"/>
<stop offset="1" stop-color="#FFB800"/>
</linearGradient>
<linearGradient id="paint6_linear_1091_103" x1="49.5" y1="38" x2="49.5" y2="95.8021" gradientUnits="userSpaceOnUse">
<stop stop-color="#FF6600"/>
<stop offset="1" stop-color="#FFB800"/>
</linearGradient>
<linearGradient id="paint7_linear_1091_103" x1="49.5" y1="38" x2="49.5" y2="95.8021" gradientUnits="userSpaceOnUse">
<stop stop-color="#FF6600"/>
<stop offset="1" stop-color="#FFB800"/>
</linearGradient>
</defs>
</svg>
