<svg width="680" height="184" viewBox="0 0 680 184" fill="none" xmlns="http://www.w3.org/2000/svg">
<path d="M200.012 136.419V52.8323H210.768L261.891 120.143V52.8323H272.115V136.419H261.359L210.175 68.4473V136.419H199.95H200.012ZM355.401 133.101C348.43 135.676 341.054 136.98 333.623 136.951C303.345 136.951 288.2 122.479 288.2 93.4053C288.2 65.9262 302.807 52.1155 332.09 52.1155C340.46 52.1155 348.286 53.3081 355.456 55.5759V64.8695C348.286 62.0888 340.849 60.7541 333.277 60.7541C310.435 60.7541 299.012 71.642 299.012 93.1458C299.012 116.38 310.299 127.935 332.745 127.935C336.33 127.935 340.317 127.404 344.7 126.477V98.4661H355.456V133.113L355.401 133.101ZM372.666 104.157V52.7829H383.422V104.157C383.422 120.223 391.458 128.256 407.531 128.256C423.467 128.256 431.639 120.223 431.639 104.157V52.7829H442.395V104.157C442.395 126.063 430.836 137.08 407.593 137.08C384.35 137.08 372.79 126.063 372.79 104.157H372.666ZM472.278 52.8323V127.768H516.168V136.53H461.583V52.8323H472.34H472.278ZM531.646 136.469H520.359L561.912 41.8765L603.484 136.53H591.528L580.772 110.244H553.14L556.064 101.482H577.181L561.51 63.646L531.622 136.53L531.646 136.469ZM615.05 136.469V52.8323H650.78C666.716 52.8323 674.684 59.4688 674.684 72.8778C674.684 83.7657 666.846 91.8605 651.318 96.9769L680 136.401H665.783L639.22 98.8307V91.9285C655.156 89.4073 663.329 83.3022 663.329 73.4772C663.329 65.7779 659.001 61.922 650.05 61.922H626.146V136.419H615.124L615.05 136.469Z" fill="#B52E31"/>
<path d="M0 30.532L85.6595 0.00646973L173.581 30.0068L159.364 143.248L85.6595 184L13.1484 143.835L0 30.532Z" fill="#E23237"/>
<path d="M173.583 30.0003L85.6611 0V184L159.371 143.241L173.583 30.0003Z" fill="#B52E31"/>
<path d="M85.8035 21.5034L32.4062 140.127L52.3298 139.731L63.0859 112.913H110.765L122.51 139.997L141.5 140.392L85.853 21.4417L85.8035 21.5034ZM85.9272 59.6048L103.99 97.3106H70.1145L85.9272 59.6171V59.6048Z" fill="white"/>
</svg>
