<svg width="705" height="182" viewBox="0 0 705 182" fill="none" xmlns="http://www.w3.org/2000/svg">
<path d="M331.469 53.0588C327.709 52.9412 324.654 55.8824 324.537 59.5294C324.537 59.6471 324.537 59.8824 324.537 60V93.4118C308.44 80.4706 284.824 83.0589 271.899 99.1766C266.612 105.882 263.675 114.118 263.675 122.706C263.322 143.412 279.771 160.471 300.45 160.824C321.13 161.177 338.166 144.706 338.519 124C338.519 123.53 338.519 123.177 338.519 122.706V60C338.519 58.1177 337.814 56.353 336.521 55.0588C335.111 53.7647 333.349 53.0588 331.469 53.0588ZM322.657 131.765C320.307 137.412 315.842 141.883 310.203 144.353C304.328 146.824 297.748 146.824 291.873 144.353C286.234 142 281.886 137.412 279.536 131.882C277.069 126.118 277.069 119.53 279.536 113.647C281.886 108 286.351 103.53 291.873 101.177C297.748 98.706 304.328 98.706 310.203 101.177C315.842 103.647 320.307 108.118 322.657 113.765C325.124 119.412 325.124 126 322.657 131.765Z" fill="#0091E2"/>
<path d="M409.602 96.2354C395.033 81.6471 371.299 81.6471 356.729 96.2354C349.68 103.294 345.802 112.824 345.802 122.706C345.45 143.412 361.899 160.471 382.578 160.824C403.258 161.177 420.294 144.706 420.647 124C420.647 123.53 420.647 123.177 420.647 122.706C420.647 117.765 419.707 112.941 417.827 108.353C415.947 103.765 413.127 99.6472 409.602 96.2354ZM404.785 131.647C403.61 134.471 401.848 136.941 399.733 139.059C397.618 141.177 395.033 142.941 392.33 144.118C386.456 146.588 379.876 146.588 374.001 144.118C368.361 141.765 363.897 137.177 361.547 131.647C359.079 125.882 359.079 119.294 361.547 113.412C363.897 107.765 368.361 103.412 374.001 100.941C379.876 98.4707 386.456 98.4707 392.33 100.941C395.15 102.118 397.618 103.882 399.733 106C401.848 108.118 403.61 110.706 404.785 113.412C407.252 119.412 407.252 126 404.785 131.647Z" fill="#0091E2"/>
<path d="M564.342 92.1177C564.342 91.1766 564.107 90.2354 563.755 89.4118C563.402 88.5883 562.815 87.8824 562.227 87.1765C561.64 86.5883 560.817 86.0001 559.995 85.6471C559.173 85.2942 558.233 85.0589 557.293 85.0589C556 85.0589 554.708 85.4118 553.533 86.1177L513.584 112.118V60.1177C513.584 58.2353 512.879 56.4706 511.587 55.1765C510.295 53.8824 508.532 53.0588 506.652 53.0588C502.775 53.0588 499.72 56.1177 499.603 60C499.603 60 499.603 60 499.603 60.1177V153.059C499.603 154.941 500.307 156.706 501.6 158C502.892 159.412 504.655 160.118 506.535 160.118C508.415 160.118 510.177 159.412 511.47 158C512.762 156.706 513.584 154.941 513.467 153.059V128.941L521.574 123.647L552.475 158.353C553.768 159.53 555.413 160.236 557.175 160.118C558.115 160.118 559.055 160 559.877 159.53C560.7 159.177 561.405 158.706 562.11 158C562.697 157.294 563.285 156.588 563.637 155.765C563.99 154.941 564.225 154 564.225 153.059C564.225 151.294 563.52 149.53 562.345 148.235L533.676 115.882L561.64 97.6471C563.52 96.4707 564.46 94.353 564.342 92.1177Z" fill="#0091E2"/>
<path d="M448.379 106C450.494 103.882 453.078 102.118 455.898 100.941C458.836 99.7648 461.891 99.0589 465.063 99.0589C467.883 99.0589 470.585 99.5295 473.17 100.471C475.755 101.529 478.222 102.941 480.337 104.824C481.63 105.882 483.275 106.353 484.92 106.353C486.8 106.471 488.679 105.765 489.972 104.353C491.264 103.059 491.969 101.177 491.969 99.2942C491.969 97.2942 491.147 95.2942 489.502 94.0001C482.805 88 474.11 84.7059 465.063 84.9412C444.384 84.9412 427.582 101.765 427.582 122.471C427.582 143.177 444.266 159.883 464.828 160C473.875 160 482.57 156.824 489.384 150.941C490.794 149.647 491.617 147.765 491.617 145.765C491.734 142 488.797 138.941 485.155 138.824C485.037 138.824 484.802 138.824 484.685 138.824C483.04 138.824 481.512 139.294 480.22 140.235C478.105 142.118 475.755 143.53 473.17 144.588C470.585 145.53 467.765 146 465.063 146C461.891 146 458.836 145.412 455.898 144.118C453.078 142.941 450.611 141.177 448.379 139.059C439.214 129.882 439.214 115.059 448.261 105.882C448.379 106.118 448.379 106.118 448.379 106Z" fill="#0091E2"/>
<path d="M703.107 89.8824C701.697 88.5883 700.17 87.6471 698.407 87.0589C696.41 86.353 694.295 85.8824 692.18 85.6472C690.065 85.4119 687.95 85.2942 685.835 85.2942C681.606 85.2942 677.258 86.0001 673.263 87.5295C669.269 88.9412 665.626 91.0589 662.336 93.6472V92.2354C662.219 88.353 658.929 85.4119 655.052 85.5295C651.409 85.6471 648.472 88.5883 648.354 92.2354V153.294C648.472 157.177 651.762 160.118 655.639 160C659.282 159.883 662.219 156.941 662.336 153.294V122.824C662.336 119.647 662.924 116.588 664.216 113.647C665.391 110.824 667.036 108.353 669.269 106.235C671.384 104.118 673.968 102.353 676.671 101.177C679.608 100 682.663 99.2942 685.835 99.2942C689.008 99.2942 692.063 99.8825 695 100.941C695.94 101.412 696.88 101.647 697.937 101.647C698.877 101.647 699.817 101.53 700.64 101.059C701.462 100.706 702.167 100.235 702.872 99.5295C703.46 98.9413 704.047 98.1178 704.4 97.2942C704.752 96.4707 704.987 95.5295 704.987 94.5883C705.105 92.8236 704.4 91.1765 703.107 89.8824Z" fill="#0091E2"/>
<path d="M638.248 108.353C632.256 94.4707 618.627 85.4118 603.587 85.2942C582.908 85.2942 566.224 102 566.106 122.706C566.106 143.412 582.908 160.236 603.587 160.236C612.517 160.236 621.212 157.059 628.026 151.177C628.144 151.059 628.261 150.941 628.261 150.941C628.849 150.471 629.436 149.883 629.789 149.177C632.021 145.883 631.199 141.53 628.026 139.294C625.324 137.53 621.799 137.883 619.449 140.118C619.214 140.353 618.509 140.941 618.509 141.059L618.392 141.177C616.394 142.824 614.162 144.235 611.695 145.059C609.11 146 606.407 146.471 603.587 146.353C601.002 146.353 598.535 146 596.068 145.177C593.718 144.353 591.485 143.294 589.488 141.765C587.491 140.353 585.728 138.588 584.318 136.588C582.791 134.588 581.733 132.235 581.028 129.883H633.901C635.781 129.883 637.543 129.177 638.836 127.883C640.246 126.588 640.951 124.824 640.833 122.941C640.951 117.882 640.011 112.941 638.248 108.353ZM581.028 115.882C581.733 113.412 582.791 111.177 584.318 109.177C585.728 107.177 587.491 105.412 589.488 104C591.485 102.588 593.718 101.412 596.068 100.588C598.418 99.7648 601.002 99.4119 603.47 99.4119C605.937 99.4119 608.522 99.7648 610.872 100.588C615.572 102.118 619.684 105.177 622.622 109.177C624.149 111.177 625.206 113.53 626.029 115.882H581.028Z" fill="#0091E2"/>
<path d="M679.255 150C676.552 150 674.438 152.236 674.438 154.941C674.438 157.647 676.67 159.765 679.372 159.765C682.075 159.765 684.19 157.53 684.19 154.941C684.19 152.118 681.957 150 679.255 150ZM679.255 158.706C677.14 158.824 675.377 157.177 675.26 155.059C675.142 152.941 676.787 151.177 678.902 151.059C681.017 150.941 682.78 152.588 682.897 154.706C682.897 154.824 682.897 154.824 682.897 154.941C683.015 156.941 681.37 158.706 679.372 158.706C679.372 158.706 679.372 158.706 679.255 158.706Z" fill="#0091E2"/>
<path d="M680.429 154.941C681.016 154.824 681.369 154.353 681.369 153.765C681.369 153.294 681.251 152.941 680.899 152.706C680.429 152.471 679.841 152.353 679.254 152.353C678.666 152.353 677.961 152.353 677.374 152.471V157.294H678.431V155.412H678.901C679.489 155.412 679.841 155.647 679.959 156.118C680.076 156.471 680.194 156.941 680.311 157.294H681.486C681.251 156.941 681.134 156.471 681.134 156.118C681.251 155.647 680.899 155.177 680.429 154.941ZM679.019 154.588H678.431V153.177C678.666 153.177 678.901 153.177 679.019 153.177C679.724 153.177 680.076 153.53 680.076 153.882C680.194 154.353 679.606 154.706 679.019 154.588Z" fill="#0091E2"/>
<path d="M250.867 68.8233C250.162 68.2351 243.818 63.4116 230.188 63.4116C226.663 63.4116 223.021 63.7645 219.496 64.3528C216.911 46.3527 201.989 37.6468 201.402 37.1762L197.76 35.0586L195.41 38.4704C192.472 43.0586 190.24 48.2351 188.947 53.5292C186.48 63.7645 188.007 73.4116 193.177 81.6469C186.95 85.1763 176.845 85.9999 174.731 86.1175H7.88751C3.54019 86.1175 0.0153351 89.6469 0.0153351 93.9999C-0.219655 108.588 2.24774 123.176 7.30003 136.941C13.0573 152 21.6344 163.176 32.679 170C45.1334 177.647 65.4601 182 88.3716 182C98.7112 182 109.051 181.059 119.273 179.177C133.49 176.588 147.119 171.647 159.691 164.471C170.031 158.471 179.313 150.824 187.185 141.882C200.462 126.941 208.334 110.235 214.091 95.4116C214.914 95.4116 215.619 95.4116 216.441 95.4116C230.893 95.4116 239.823 89.6469 244.758 84.7057C248.047 81.6469 250.515 77.8822 252.277 73.6469L253.335 70.5881L250.867 68.8233Z" fill="#0091E2"/>
<path d="M23.3959 81.294H45.7199C46.7774 81.294 47.7173 80.4704 47.7173 79.294V59.2939C47.7173 58.2351 46.8949 57.2939 45.7199 57.2939H23.3959C22.3384 57.2939 21.3984 58.1175 21.3984 59.2939V79.294C21.5159 80.4704 22.3384 81.294 23.3959 81.294Z" fill="#0091E2"/>
<path d="M54.18 81.294H76.5041C77.5615 81.294 78.5015 80.4704 78.5015 79.294V59.2939C78.5015 58.2351 77.679 57.2939 76.5041 57.2939H54.18C53.1226 57.2939 52.1826 58.1175 52.1826 59.2939V79.294C52.3001 80.4704 53.1226 81.294 54.18 81.294Z" fill="#0091E2"/>
<path d="M85.5501 81.294H107.874C108.932 81.294 109.872 80.4704 109.872 79.294V59.2939C109.872 58.2351 109.049 57.2939 107.874 57.2939H85.5501C84.4927 57.2939 83.5527 58.1175 83.5527 59.2939V79.294C83.5527 80.4704 84.3752 81.294 85.5501 81.294Z" fill="#0091E2"/>
<path d="M116.453 81.294H138.778C139.835 81.294 140.775 80.4704 140.775 79.294V59.2939C140.775 58.2351 139.952 57.2939 138.778 57.2939H116.453C115.396 57.2939 114.456 58.1175 114.456 59.2939V79.294C114.456 80.4704 115.396 81.294 116.453 81.294Z" fill="#0091E2"/>
<path d="M54.18 52.7061H76.5041C77.5615 52.7061 78.5015 51.7649 78.5015 50.7061V30.7061C78.5015 29.6472 77.679 28.7061 76.5041 28.7061H54.18C53.1226 28.7061 52.1826 29.5296 52.1826 30.7061V50.7061C52.3001 51.7649 53.1226 52.7061 54.18 52.7061Z" fill="#0091E2"/>
<path d="M85.5501 52.7061H107.874C108.932 52.7061 109.872 51.7649 109.872 50.7061V30.7061C109.872 29.6472 109.049 28.7061 107.874 28.7061H85.5501C84.4927 28.7061 83.5527 29.5296 83.5527 30.7061V50.7061C83.5527 51.7649 84.3752 52.7061 85.5501 52.7061Z" fill="#0091E2"/>
<path d="M116.453 52.7061H138.778C139.835 52.7061 140.775 51.7649 140.775 50.7061V30.7061C140.775 29.6472 139.835 28.7061 138.778 28.7061H116.453C115.396 28.7061 114.456 29.5296 114.456 30.7061V50.7061C114.456 51.7649 115.396 52.7061 116.453 52.7061Z" fill="#0091E2"/>
<path d="M116.453 24H138.778C139.835 24 140.775 23.1765 140.775 22.0001V2.00002C140.775 0.941193 139.835 0 138.778 0H116.453C115.396 0 114.456 0.823545 114.456 2.00002V22.0001C114.456 23.0589 115.396 24 116.453 24Z" fill="#0091E2"/>
<path d="M147.589 81.294H169.913C170.971 81.294 171.911 80.4704 171.911 79.294V59.2939C171.911 58.2351 171.088 57.2939 169.913 57.2939H147.589C146.532 57.2939 145.592 58.1175 145.592 59.2939V79.294C145.709 80.4704 146.532 81.294 147.589 81.294Z" fill="#0091E2"/>
</svg>
