<svg width="705" height="153" viewBox="0 0 705 153" fill="none" xmlns="http://www.w3.org/2000/svg">
<path d="M293.419 78.9289C292.334 107.457 269.548 129.847 241.338 129.847C211.681 129.847 189.619 106.013 189.619 76.7621C189.619 47.5114 213.489 23.6775 242.785 23.6775C255.805 23.6775 268.825 29.4554 279.675 39.5668L271.357 50.0393C263.038 42.8169 252.912 37.7612 242.785 37.7612C221.446 37.7612 203.724 55.0949 203.724 76.7621C203.724 98.7905 220.361 115.763 241.338 115.763C260.145 115.763 274.973 102.041 278.228 83.9845H235.19V71.3453H293.419V78.9289Z" fill="#565656"/>
<path d="M342.605 71.7065H334.649C325.968 71.7065 318.735 78.9288 318.735 87.5957V128.763H304.63V57.9839H316.203V63.7618C320.182 59.7895 325.968 57.9839 332.84 57.9839H348.03L342.605 71.7065Z" fill="#565656"/>
<path d="M420.003 128.763H407.706V119.735C398.303 128.763 383.836 133.097 369.007 126.597C358.157 121.902 349.839 111.791 347.669 99.8737C343.329 77.1231 361.05 56.9004 383.474 56.9004C392.877 56.9004 401.558 60.8727 407.706 67.0117V57.9837H420.003V128.763ZM405.536 98.7903C408.791 84.3455 397.941 71.3452 383.836 71.3452C371.539 71.3452 361.774 81.4565 361.774 93.3735C361.774 107.096 373.709 117.569 387.814 115.402C396.133 113.957 403.366 107.096 405.536 98.7903Z" fill="#565656"/>
<path d="M448.212 54.3728V58.3451H470.636V70.6232H448.212V128.764H434.469V54.7339C434.469 39.2057 445.681 30.1777 459.786 30.1777H476.784L470.998 43.5392H459.786C453.276 43.178 448.212 48.2337 448.212 54.3728Z" fill="#565656"/>
<path d="M545.864 128.763H533.929V119.735C524.525 128.763 510.058 133.097 495.23 126.597C484.38 121.902 476.061 111.791 473.891 99.8737C469.551 77.1231 487.273 56.9004 509.697 56.9004C519.1 56.9004 527.78 60.8727 533.929 67.0117V57.9837H546.225V128.763H545.864ZM531.397 98.7903C534.652 84.3455 523.802 71.3452 509.697 71.3452C497.4 71.3452 487.635 81.4565 487.635 93.3735C487.635 107.096 499.57 117.569 513.675 115.402C522.355 113.957 529.227 107.096 531.397 98.7903Z" fill="#565656"/>
<path d="M621.453 87.2345V128.763H607.348V86.8733C607.348 78.2065 600.115 70.9841 591.435 70.9841C582.393 70.9841 575.521 78.2065 575.521 86.8733V128.763H561.416V57.9837H572.989V64.1228C578.053 59.4282 584.925 56.9004 591.796 56.9004C608.433 57.2615 621.453 70.623 621.453 87.2345Z" fill="#565656"/>
<path d="M704.638 128.763H692.703V119.735C683.3 128.763 668.833 133.097 654.004 126.597C643.154 121.902 634.836 111.791 632.666 99.8737C628.326 77.1231 646.048 56.9004 668.471 56.9004C677.875 56.9004 686.555 60.8727 692.703 67.0117V57.9837H705V128.763H704.638ZM690.171 98.7903C693.426 84.3455 682.576 71.3452 668.471 71.3452C656.174 71.3452 646.409 81.4565 646.409 93.3735C646.409 107.096 658.344 117.569 672.449 115.402C681.13 113.957 688.001 107.096 690.171 98.7903Z" fill="#565656"/>
<path d="M140.724 67.7436C140.453 65.1642 140.045 62.1775 139.229 58.9193C138.413 55.661 137.053 52.1313 135.286 48.3301C133.382 44.6646 131.071 40.7276 127.944 37.0621C126.72 35.5688 125.36 34.2112 124.001 32.7178C126.176 24.165 121.417 16.6983 121.417 16.6983C113.123 16.1553 107.957 19.2777 106.053 20.6353C105.781 20.4996 105.373 20.3638 105.101 20.228C103.742 19.685 102.246 19.142 100.751 18.5989C99.2549 18.1917 97.7593 17.6486 96.2637 17.3771C94.768 16.9698 93.1365 16.6983 91.5049 16.4268C91.2329 16.4268 90.961 16.291 90.6891 16.291C87.154 4.88731 76.8206 0 76.8206 0C64.9916 7.60248 62.6802 17.7844 62.6802 17.7844C62.6802 17.7844 62.6802 18.0559 62.5442 18.3274C61.8644 18.4632 61.3205 18.7347 60.6407 18.8705C59.8249 19.142 58.8731 19.4135 58.0573 19.8208C57.2415 20.228 56.2898 20.4996 55.474 20.9068C53.7064 21.7214 52.0748 22.5359 50.3073 23.4862C48.6757 24.4366 47.0441 25.3869 45.5485 26.4729C45.2766 26.3372 45.1406 26.2014 45.1406 26.2014C29.2326 20.0923 15.0922 27.4232 15.0922 27.4232C13.8685 44.3931 21.4826 54.9823 22.9782 56.8829C22.5703 57.9689 22.2984 58.9193 21.8905 60.0053C20.6668 63.8066 19.851 67.7436 19.3071 71.8163C19.1712 72.3594 19.1712 73.0382 19.0352 73.5812C4.3509 80.7764 0 95.7098 0 95.7098C12.2369 109.829 26.6493 110.643 26.6493 110.643C28.4168 113.902 30.5923 117.024 32.9037 119.875C33.8554 121.097 34.9432 122.183 36.0309 123.405C31.544 136.166 36.7107 146.891 36.7107 146.891C50.4433 147.434 59.417 140.917 61.3205 139.424C62.6802 139.831 64.0398 140.239 65.3995 140.646C69.6144 141.732 73.9653 142.411 78.1802 142.547C79.268 142.547 80.3557 142.547 81.4434 142.547H81.9873H82.3952H83.075H83.7548C90.1452 151.778 101.566 153 101.566 153C109.588 144.447 110.132 136.166 110.132 134.265C110.132 134.265 110.132 134.265 110.132 134.13C110.132 133.994 110.132 133.858 110.132 133.858C110.132 133.722 110.132 133.587 110.132 133.451C111.764 132.229 113.395 131.007 115.027 129.65C118.29 126.799 121.009 123.405 123.457 119.875C123.729 119.603 123.865 119.196 124.137 118.925C133.246 119.468 139.637 113.223 139.637 113.223C138.141 103.72 132.702 99.1038 131.615 98.2893C131.615 98.2893 131.615 98.2893 131.479 98.1535L131.343 98.0177L131.207 97.882C131.207 97.339 131.343 96.7959 131.343 96.1171C131.479 95.0311 131.479 94.0807 131.479 92.9947V92.1801V91.7728V91.6371C131.479 91.3656 131.479 91.5013 131.479 91.3656V90.6868V89.8722C131.479 89.6007 131.479 89.3292 131.479 89.0577C131.479 88.7862 131.479 88.5146 131.343 88.2431L131.207 87.4286L131.071 86.614C130.935 85.5279 130.663 84.5776 130.527 83.4916C129.575 79.4188 127.944 75.4818 125.904 72.0878C123.729 68.5581 121.145 65.5714 118.154 62.8563C115.163 60.2768 111.9 58.1047 108.365 56.6114C104.83 54.9823 101.294 54.0319 97.6233 53.6247C95.8558 53.3531 93.9523 53.3531 92.1847 53.3531H91.5049H91.3689H91.097H90.825H90.1452C89.8733 53.3531 89.6014 53.3531 89.4654 53.3531C88.5136 53.4889 87.5619 53.6247 86.7461 53.7604C83.075 54.4392 79.6759 55.7968 76.6846 57.5617C73.6934 59.3265 71.11 61.6344 68.9346 64.2138C66.7591 66.7933 65.1275 69.5084 64.0398 72.4951C62.9521 75.3461 62.2723 78.4685 62.1363 81.3194C62.1363 81.9982 62.1363 82.8128 62.1363 83.4916C62.1363 83.6273 62.1363 83.8988 62.1363 84.0346V84.5776C62.1363 84.9849 62.1363 85.2564 62.2723 85.6637C62.4082 87.1571 62.6802 88.5146 63.0881 89.8722C63.9039 92.5874 65.1275 95.0311 66.7591 97.2032C68.3907 99.3753 70.1583 101.004 72.1978 102.362C74.2372 103.72 76.2767 104.67 78.4522 105.349C80.6276 106.028 82.6671 106.299 84.5706 106.163C84.8426 106.163 85.1145 106.163 85.2505 106.163C85.3864 106.163 85.5224 106.163 85.6584 106.163C85.7943 106.163 85.9303 106.163 86.0662 106.163C86.3382 106.163 86.4741 106.163 86.7461 106.163H86.882H87.018C87.154 106.163 87.2899 106.163 87.4259 106.163C87.6978 106.163 87.9698 106.028 88.1057 106.028C88.3777 106.028 88.5136 105.892 88.7856 105.892C89.1935 105.756 89.7373 105.62 90.1452 105.484C90.961 105.213 91.7768 104.806 92.5926 104.534C93.4084 104.127 94.0882 103.72 94.6321 103.312C94.7681 103.177 95.04 103.041 95.176 102.905C95.8558 102.362 95.9917 101.412 95.4479 100.733C94.904 100.19 94.0882 100.054 93.4084 100.326C93.2724 100.461 93.1365 100.461 92.8645 100.597C92.3207 100.869 91.6408 101.14 91.097 101.276C90.4172 101.412 89.7373 101.683 89.0575 101.819C88.6496 101.819 88.3777 101.955 87.9698 101.955C87.8338 101.955 87.5619 101.955 87.4259 101.955C87.2899 101.955 87.018 101.955 86.882 101.955C86.7461 101.955 86.4742 101.955 86.3382 101.955C86.0663 101.955 85.9303 101.955 85.6584 101.955H85.5224H85.3864C85.2505 101.955 85.2505 101.955 85.1145 101.955C84.9785 101.955 84.7066 101.955 84.5706 101.819C83.075 101.547 81.4434 101.14 79.9478 100.461C78.4522 99.7826 76.9566 98.8323 75.7329 97.6105C74.3732 96.3886 73.2855 95.0311 72.3337 93.402C71.382 91.7729 70.8381 90.008 70.5662 88.2431C70.4302 87.2928 70.2942 86.3425 70.4302 85.3922C70.4302 85.1207 70.4302 84.8492 70.4302 84.5776V84.4419V84.3061C70.4302 84.1704 70.4302 84.0346 70.4302 83.8988C70.4302 83.3558 70.5662 82.9485 70.7021 82.4055C71.382 78.3327 73.4214 74.3957 76.5487 71.409C77.3644 70.5945 78.1802 69.9157 79.132 69.3727C80.0838 68.6939 81.0355 68.1508 81.9873 67.7436C82.939 67.3363 84.0268 66.929 85.1145 66.6575C86.2022 66.386 87.2899 66.1145 88.3777 66.1145C88.9215 66.1145 89.4654 65.9787 90.0093 65.9787C90.1452 65.9787 90.2812 65.9787 90.4172 65.9787H90.825H91.097H91.2329H91.6408C92.8645 66.1145 94.0882 66.2502 95.176 66.5217C97.4874 67.0648 99.7988 67.8793 101.974 69.1012C106.325 71.5448 109.996 75.2103 112.172 79.6903C113.259 81.8625 114.075 84.3061 114.483 86.8855C114.619 87.5643 114.619 88.1074 114.755 88.7862V89.1934V89.6007C114.755 89.7365 114.755 89.8722 114.755 90.008C114.755 90.1437 114.755 90.2795 114.755 90.4153V90.8225V91.2298C114.755 91.5013 114.755 92.0444 114.755 92.3159C114.755 92.9947 114.619 93.6735 114.619 94.3523C114.483 95.0311 114.483 95.7098 114.347 96.3886C114.211 97.0674 114.075 97.7462 113.939 98.425C113.667 99.7826 113.123 101.004 112.716 102.362C111.764 104.941 110.404 107.385 108.773 109.557C105.509 114.037 101.022 117.703 95.9917 120.011C93.4084 121.097 90.825 122.047 88.1057 122.454C86.7461 122.726 85.3864 122.862 84.0268 122.862H83.7548H83.4829H83.075H82.3952H81.9873H81.8513C81.1715 122.862 80.3557 122.862 79.6759 122.726C76.6846 122.454 73.8293 121.911 70.9741 121.097C68.1188 120.282 65.3995 119.196 62.8161 117.839C57.6494 115.123 53.0266 111.186 49.3555 106.706C47.588 104.398 45.9564 101.955 44.5967 99.3753C43.2371 96.7959 42.2853 94.0807 41.4695 91.3656C40.6537 88.6504 40.2458 85.7995 40.1099 82.9485V82.4055V82.2697V82.134V81.8625V81.4552V81.3194V81.1837V80.9122V80.2334V80.0976V79.8261C40.1099 79.4188 40.1099 79.1473 40.1099 78.74C40.1099 77.3824 40.2458 75.8891 40.5178 74.3957C40.6537 72.9024 40.9257 71.5448 41.1976 70.0515C41.4695 68.5581 41.8774 67.2005 42.2853 65.7072C43.1011 62.8563 44.0529 60.1411 45.2766 57.5617C47.7239 52.4028 50.8511 47.787 54.5222 44.1216C55.474 43.1713 56.4257 42.3567 57.5135 41.5421C57.9214 41.1349 58.8731 40.3203 59.9608 39.6415C61.0486 38.9627 62.1363 38.2839 63.36 37.7409C63.9039 37.4694 64.4477 37.1979 65.1275 36.9264C65.3995 36.7906 65.6714 36.6548 66.0793 36.5191C66.3512 36.3833 66.6232 36.2476 67.0311 36.1118C68.2547 35.5688 69.4784 35.1615 70.7021 34.7542C70.9741 34.6185 71.382 34.6185 71.6539 34.4827C71.9258 34.3469 72.3337 34.3469 72.6057 34.2112C73.2855 34.0754 73.8293 33.9397 74.5092 33.6681C74.7811 33.5324 75.189 33.5324 75.4609 33.3966C75.7329 33.3966 76.1408 33.2609 76.4127 33.2609C76.6846 33.2609 77.0925 33.1251 77.3645 33.1251L77.9083 32.9894L78.4522 32.8536C78.7241 32.8536 79.132 32.7178 79.4039 32.7178C79.8118 32.7178 80.0838 32.5821 80.4917 32.5821C80.7636 32.5821 81.3075 32.4463 81.5794 32.4463C81.8513 32.4463 81.9873 32.4463 82.2592 32.3106H82.6671H82.939H83.211C83.6189 32.3106 83.8908 32.3106 84.2987 32.1748H84.8426H84.9785H85.2505C85.5224 32.1748 85.9303 32.1748 86.2022 32.1748C87.4259 32.1748 88.6496 32.1748 89.8733 32.1748C92.3207 32.3106 94.7681 32.5821 97.0795 32.9894C101.702 33.8039 106.189 35.2972 110.132 37.3336C114.075 39.2342 117.746 41.6779 120.737 44.2573C120.873 44.3931 121.145 44.5288 121.281 44.8004C121.417 44.9361 121.689 45.0719 121.825 45.3434C122.233 45.6149 122.505 46.0222 122.913 46.2937C123.321 46.5652 123.593 46.9725 124.001 47.244C124.273 47.6513 124.68 47.9228 124.952 48.3301C126.312 49.6877 127.536 51.181 128.623 52.5386C130.799 55.3895 132.567 58.2405 133.926 60.9556C134.062 61.0914 134.062 61.2272 134.198 61.4987C134.334 61.6344 134.334 61.7702 134.47 62.0417C134.606 62.3132 134.742 62.7205 135.014 62.992C135.15 63.2635 135.286 63.6708 135.422 63.9423C135.558 64.2138 135.694 64.6211 135.83 64.8926C136.374 66.1145 136.781 67.3363 137.189 68.5581C137.869 70.4587 138.277 72.0878 138.685 73.4454C138.821 73.9885 139.365 74.3957 139.909 74.3957C140.588 74.3957 140.996 73.8527 140.996 73.1739C140.86 71.5448 140.86 69.7799 140.724 67.7436Z" fill="url(#paint0_linear_1099_200)"/>
<defs>
<linearGradient id="paint0_linear_1099_200" x1="70.4982" y1="187.497" x2="70.4982" y2="47.8665" gradientUnits="userSpaceOnUse">
<stop stop-color="#FCEE1F"/>
<stop offset="1" stop-color="#F15B2A"/>
</linearGradient>
</defs>
</svg>
