<svg width="543" height="252" viewBox="0 0 543 252" fill="none" xmlns="http://www.w3.org/2000/svg">
<path d="M52.7763 22.4244C50.038 19.6252 46.236 17.9013 42.0008 17.9013C37.7751 17.9013 34.0042 19.6252 31.3002 22.4244H31.2294C28.4997 25.2023 26.8054 29.0796 26.8054 33.364C26.8054 37.6738 28.4997 41.5269 31.2294 44.2774L31.3002 44.3537C34.0042 47.1286 37.7751 48.8283 42.0008 48.8283C46.236 48.8283 50.038 47.1286 52.7763 44.3537L52.8074 44.2774C55.5497 41.5269 57.2214 37.6738 57.2214 33.364C57.2214 29.0796 55.5497 25.2023 52.8074 22.4244H52.7763ZM42.0008 234.098C46.236 234.098 50.038 232.343 52.7763 229.595L52.8074 229.516C55.5497 226.773 57.2214 222.895 57.2214 218.634C57.2214 214.325 55.5497 210.465 52.8074 207.673H52.7763C50.038 204.847 46.236 203.139 42.0008 203.139C37.7751 203.139 34.0042 204.847 31.3002 207.673H31.2294C28.4997 210.465 26.8054 214.325 26.8054 218.634C26.8054 222.895 28.4997 226.773 31.2294 229.516L31.3002 229.595C34.0042 232.343 37.7751 234.098 42.0008 234.098ZM124.792 187.247C128.556 186.239 131.964 183.782 134.043 180.064L134.324 179.521C136.174 176 136.514 171.93 135.524 168.319C134.527 164.461 132.084 161.039 128.438 158.912L128.224 158.765C124.671 156.778 120.627 156.346 116.912 157.377C113.133 158.337 109.736 160.898 107.667 164.584C105.572 168.247 105.135 172.457 106.136 176.334C107.173 180.148 109.595 183.591 113.219 185.744H113.242C116.872 187.87 120.979 188.249 124.792 187.247ZM57.5871 110.153C53.5981 106.106 48.0933 103.569 42.0008 103.569C35.9165 103.569 30.4277 106.106 26.4469 110.153C22.4766 114.197 20.0303 119.774 20.0303 125.974C20.0303 132.174 22.4766 137.775 26.4469 141.866C30.4277 145.889 35.9165 148.403 42.0008 148.403C48.0933 148.403 53.5981 145.889 57.5871 141.866C61.5646 137.775 64.0109 132.174 64.0109 125.974C64.0109 119.774 61.5646 114.197 57.5871 110.153ZM48.8225 83.7999C57.6647 85.2821 65.6076 89.5919 71.6772 95.815H71.7239C72.6897 96.7938 73.629 97.8719 74.5015 98.9503L89.6743 90.02C87.633 83.7483 87.5394 77.191 89.1786 71.0388C91.3414 62.8062 96.5885 55.433 104.453 50.8147L104.711 50.6477C112.49 46.1687 121.333 45.2373 129.315 47.4371C137.398 49.6413 144.69 55.0049 149.228 62.9964V63.0197C153.747 70.968 154.663 80.0896 152.508 88.299C150.358 96.5327 145.091 103.954 137.234 108.548L135.161 109.792H134.951C127.682 113.313 119.692 113.864 112.353 111.897C106.327 110.272 100.8 106.847 96.471 101.99L81.3222 110.894C83.0632 115.584 84.0251 120.635 84.0251 125.974C84.0251 131.286 83.0632 136.411 81.3222 141.124L96.471 150.005C100.8 145.072 106.327 141.723 112.353 140.094C120.44 137.846 129.4 138.801 137.234 143.447L137.736 143.685V143.709C145.302 148.379 150.382 155.582 152.508 163.72C154.663 171.882 153.747 181.007 149.228 188.971L148.955 189.526L148.924 189.478C144.386 197.157 137.233 202.358 129.337 204.558C121.239 206.73 112.275 205.802 104.453 201.224V201.16C96.5883 196.534 91.3412 189.146 89.1784 180.928C87.5391 174.804 87.6327 168.247 89.674 161.975L74.5013 153.068C73.6288 154.146 72.6895 155.177 71.7236 156.156L71.677 156.203C65.6073 162.403 57.6645 166.713 48.8222 168.148V185.986C55.1248 187.326 60.7655 190.534 65.1866 195.033L65.2105 195.08C71.136 201.081 74.8051 209.442 74.8051 218.634C74.8051 227.796 71.136 236.109 65.2105 242.142L65.1866 242.236C59.2186 248.265 51.0351 252 42.0005 252C33.0139 252 24.8064 248.265 18.8541 242.236H18.8302V242.142C12.8978 236.109 9.22047 227.796 9.22047 218.634C9.22047 209.442 12.8978 201.081 18.8302 195.08V195.033H18.8541C23.2709 190.534 28.9231 187.326 35.2038 185.986V168.148C26.3605 166.713 18.4334 162.403 12.372 156.203L12.3097 156.156C4.74104 148.426 0 137.775 0 125.974C0 114.197 4.74104 103.544 12.3097 95.815H12.372C18.4334 89.5919 26.3605 85.2821 35.2038 83.7999V66.0367C28.9233 64.6499 23.2712 61.4425 18.8543 56.9668H18.8304V56.9191C12.898 50.8622 9.2207 42.5575 9.2207 33.3639C9.2207 24.219 12.898 15.8418 18.8304 9.80982L18.8543 9.78545C24.8067 3.73178 33.0141 0 42.0008 0C51.0353 0 59.2188 3.73178 65.1869 9.78545V9.80982H65.2107C71.1363 15.8418 74.8053 24.219 74.8053 33.3639C74.8053 42.5575 71.1363 50.8622 65.2107 56.9191L65.1869 56.9668C60.7657 61.4425 55.1251 64.6499 48.8225 66.0368V83.7999ZM134.043 71.9511L133.916 71.7565C131.824 68.17 128.485 65.7756 124.792 64.7438C120.979 63.7143 116.872 64.1454 113.219 66.2787H113.242C109.595 68.3835 107.157 71.8285 106.136 75.6847C105.135 79.5145 105.572 83.7483 107.667 87.4354L107.737 87.5306C109.837 91.169 113.179 93.6108 116.912 94.5939C120.658 95.6721 124.839 95.2166 128.438 93.0834L128.633 92.9881C132.178 90.8359 134.539 87.4354 135.524 83.7006C136.529 79.8476 136.127 75.6371 134.043 71.9511Z" fill="#231F20"/>
<path d="M201.361 77.168H218.291V129.756L242.704 102.277H263.003L233.529 134.112L263.125 174.467H243.741L218.291 138.421V174.467H201.361V77.168Z" fill="#231F20"/>
<path d="M282.669 138.683C282.669 147.638 288.998 160.656 304.247 160.656C313.682 160.656 319.891 155.653 323.112 149.097C324.798 145.914 325.574 142.512 325.835 138.972C325.952 135.547 325.316 131.984 323.886 128.821C320.918 122.001 314.331 116.088 304.122 116.088C290.431 116.088 282.669 127.385 282.669 138.564V138.683ZM342.629 174.467H325.691V164.081C321.184 172.481 311.746 176.694 301.792 176.694C279.047 176.694 265.742 158.67 265.742 138.303C265.742 115.561 281.892 100.049 301.792 100.049C314.714 100.049 322.593 107.017 325.691 112.809V102.277H342.629V174.467Z" fill="#231F20"/>
<path d="M361.798 115.56H353.024V102.277H361.798V98.2088C361.798 76.7596 377.825 75.4666 389.978 75.324V88.5841C385.705 88.5841 378.735 88.5841 378.735 98.7322V102.277H389.978V115.56H378.735V174.466H361.798V115.56Z" fill="#231F20"/>
<path d="M401.489 77.168H418.413V129.756L442.831 102.277H463.13L433.656 134.112L463.247 174.467H443.863L418.413 138.421V174.467H401.489V77.168Z" fill="#231F20"/>
<path d="M482.796 138.683C482.796 147.638 489.122 160.656 504.374 160.656C513.796 160.656 520.005 155.653 523.231 149.097C524.922 145.914 525.701 142.512 525.957 138.972C526.074 135.547 525.438 131.984 524.005 128.821C521.042 122.001 514.455 116.088 504.249 116.088C490.556 116.088 482.796 127.385 482.796 138.564V138.683ZM542.75 174.467H525.818V164.081C521.297 172.481 511.868 176.694 501.919 176.694C479.174 176.694 465.88 158.67 465.88 138.303C465.88 115.561 482.025 100.049 501.919 100.049C514.833 100.049 522.72 107.017 525.818 112.809V102.277H542.75V174.467Z" fill="#231F20"/>
</svg>
