<svg width="782" height="207" viewBox="0 0 782 207" fill="none" xmlns="http://www.w3.org/2000/svg">
<path d="M91.0831 82.3768C80.1988 34.2684 57.5133 21.4614 51.7264 12.4082C49.3401 8.41998 47.2262 4.27444 45.3992 0C45.0935 4.27376 44.5318 6.96623 40.9061 10.2072C33.6263 16.7104 2.70821 41.9541 0.106232 96.6155C-2.31802 147.58 37.5008 179.007 42.7616 182.255C46.8068 184.249 51.7335 182.297 54.1364 180.467C73.3313 167.268 99.5573 132.081 91.1044 82.3768" fill="#10AA50"/>
<path d="M47.0507 155.116C46.0483 167.731 45.3303 175.061 42.7852 182.269C42.7852 182.269 44.4558 194.278 45.6288 207H49.7806C50.771 198.042 52.2831 189.149 54.3092 180.367C48.9346 177.718 47.2569 166.185 47.0507 155.116Z" fill="#B8C4C2"/>
<path d="M54.2999 180.374C48.8684 177.86 47.2973 166.085 47.0556 155.116C48.3988 137.021 48.7903 118.868 48.2286 100.732C47.9442 91.2162 48.3637 12.5932 45.8896 1.08252C47.582 4.98106 49.5319 8.76223 51.7263 12.4009C57.5132 21.4612 80.2059 34.2683 91.083 82.3766C99.5572 131.995 73.4735 167.09 54.2999 180.374Z" fill="#12924F"/>
<path d="M770.201 162.98C767.876 162.979 765.602 162.29 763.666 160.999C761.73 159.708 760.219 157.872 759.321 155.722C758.424 153.572 758.181 151.205 758.623 148.917C759.065 146.629 760.172 144.523 761.805 142.865C763.439 141.206 765.525 140.067 767.802 139.593C770.079 139.119 772.445 139.33 774.603 140.199C776.76 141.068 778.613 142.557 779.929 144.479C781.244 146.401 781.963 148.669 781.996 150.999C782.038 152.57 781.763 154.133 781.187 155.595C780.611 157.057 779.747 158.387 778.645 159.506C777.544 160.625 776.228 161.51 774.777 162.107C773.326 162.703 771.77 163 770.201 162.98ZM770.201 140.414C768.076 140.4 765.995 141.018 764.221 142.19C762.447 143.362 761.06 145.035 760.236 146.998C759.412 148.96 759.187 151.123 759.591 153.214C759.995 155.304 761.009 157.227 762.504 158.74C764 160.252 765.91 161.286 767.992 161.71C770.075 162.134 772.236 161.929 774.202 161.121C776.168 160.314 777.851 158.94 779.037 157.173C780.223 155.407 780.859 153.327 780.865 151.198C780.893 149.783 780.637 148.376 780.112 147.062C779.587 145.748 778.804 144.552 777.81 143.546C776.815 142.541 775.629 141.745 774.322 141.207C773.016 140.669 771.614 140.4 770.201 140.414ZM773.045 158.635L770.002 152.06H767.55V158.635H765.765V143.676H770.166C773.443 143.676 774.808 145.101 774.808 147.858C774.808 150.051 773.777 151.419 771.858 151.839L775 158.613L773.045 158.635ZM767.621 150.514H770.201C772.291 150.514 773.088 149.802 773.088 147.893C773.088 145.984 772.327 145.336 769.974 145.336H767.621V150.514Z" fill="#21313C"/>
<path d="M594.668 152.21C597.86 154.767 604.237 155.821 609.86 155.821C617.147 155.821 624.292 154.468 631.273 148.15C638.382 141.675 643.273 131.767 643.273 115.947C643.273 100.747 637.501 88.41 625.657 81.1874C618.974 76.9777 610.315 75.3181 600.44 75.3181C597.597 75.3181 594.668 75.4676 593.004 76.2227C592.322 76.7621 591.839 77.5141 591.632 78.3596C591.333 81.0663 591.333 101.68 591.333 113.867C591.333 126.361 591.333 143.784 591.632 145.921C591.788 147.73 592.698 150.907 594.668 152.239M564.354 68.5513C566.935 68.5513 576.745 69 581.309 69C589.84 69 595.734 68.5513 611.68 68.5513C625.045 68.5513 636.292 72.1626 644.333 79.079C654.058 87.5125 659.262 99.244 659.262 113.54C659.262 133.854 650.02 145.593 640.728 152.21C631.486 159.134 619.465 163.044 602.339 163.044C593.224 163.044 577.577 162.745 564.517 162.595H564.247C563.636 161.392 565.363 156.698 566.43 156.577C569.984 156.178 570.923 156.035 572.558 155.358C575.316 154.226 575.963 152.816 576.269 147.851C576.724 138.52 576.575 127.387 576.575 114.744C576.575 105.719 576.724 88.1109 576.425 82.5407C575.963 77.8823 574.001 76.6785 570.027 75.7739C567.209 75.1741 564.361 74.7224 561.496 74.4206C561.197 73.516 563.529 69.4345 564.29 68.5513" fill="#21313C"/>
<path d="M696.905 76.1869C696.301 76.3365 695.54 77.8466 695.54 78.5945C695.384 84.015 695.234 98.1541 695.234 107.934C695.273 108.121 695.365 108.292 695.501 108.427C695.636 108.561 695.808 108.652 695.995 108.689C697.964 108.838 702.827 108.995 706.929 108.995C712.702 108.995 716.043 108.24 717.863 107.336C722.726 104.928 724.972 99.657 724.972 93.9444C724.972 80.8525 715.858 75.8878 702.344 75.8878C700.517 75.8646 698.69 75.9646 696.877 76.1869M731.356 136.376C731.356 123.134 721.631 115.612 703.858 115.612C703.104 115.612 697.459 115.463 696.116 115.762C695.661 115.912 695.206 116.211 695.206 116.517C695.206 125.998 695.049 141.191 695.512 147.21C695.817 149.767 697.644 153.378 699.912 154.432C702.344 155.786 707.811 156.085 711.607 156.085C722.086 156.085 731.356 150.223 731.356 136.376ZM669.463 68.8147C670.835 68.8147 674.873 69.2634 685.203 69.2634C694.921 69.2634 702.82 68.9643 712.218 68.9643C723.913 68.9643 740.008 73.181 740.008 90.6322C740.008 99.1798 733.937 106.132 726.039 109.444C725.584 109.594 725.584 109.893 726.039 110.042C737.278 112.891 747.146 119.822 747.146 133.064C747.146 146.006 739.098 154.133 727.404 159.247C720.294 162.41 711.458 163.457 702.521 163.457C695.689 163.457 677.376 162.745 667.195 162.859C666.129 162.41 668.169 157.588 669.079 156.84C671.412 156.768 673.726 156.404 675.968 155.757C679.608 154.86 680.042 153.684 680.497 148.264C680.803 143.598 680.803 126.895 680.803 115.007C680.803 98.7524 680.959 87.7759 680.803 82.3554C680.653 78.1457 679.132 76.7853 676.246 76.0374C673.971 75.5815 670.174 75.1327 667.139 74.684C666.378 73.929 668.717 69.413 669.47 68.8147" fill="#21313C"/>
<path d="M124.718 162.98C124.327 162.016 124.169 160.974 124.256 159.938C124.222 159.232 124.382 158.53 124.718 157.908C126.682 157.624 128.629 157.227 130.548 156.718C133.235 156.049 134.244 154.582 134.401 151.148C134.842 143.035 134.87 127.814 134.714 117.115V116.802C134.714 115.648 134.714 114.081 133.292 112.976C130.793 111.406 128.08 110.206 125.237 109.415C123.964 109.038 123.261 108.368 123.296 107.584C123.332 106.801 124.135 105.875 125.792 105.547C130.192 105.099 141.723 102.342 146.252 100.248C146.718 100.857 146.934 101.621 146.856 102.385C146.856 102.855 146.785 103.353 146.735 103.866C146.607 105.376 146.465 107.093 146.465 108.802C146.493 109.01 146.578 109.206 146.711 109.368C146.844 109.529 147.019 109.651 147.217 109.718C147.415 109.786 147.628 109.796 147.832 109.749C148.036 109.702 148.222 109.598 148.37 109.451C156.994 102.677 164.722 100.262 168.682 100.262C175.201 100.262 180.277 103.382 184.208 109.807C184.298 109.962 184.427 110.091 184.581 110.182C184.735 110.273 184.911 110.323 185.09 110.327C185.252 110.325 185.413 110.284 185.556 110.207C185.7 110.13 185.823 110.02 185.914 109.885C193.841 103.859 201.697 100.262 206.958 100.262C219.385 100.262 226.814 109.586 226.814 125.192C226.814 129.68 226.771 135.371 226.728 140.678C226.693 145.336 226.657 149.702 226.657 152.722C226.657 153.435 227.638 155.486 229.11 155.892C230.93 156.783 233.553 157.238 236.873 157.808H237.001C237.25 158.706 236.724 162.189 236.219 162.901C235.395 162.901 234.257 162.83 232.835 162.759C230.255 162.63 226.714 162.452 222.598 162.452C214.337 162.452 210.022 162.609 205.898 162.88C205.586 161.847 205.479 158.513 205.856 157.815C207.563 157.548 209.253 157.179 210.918 156.711C213.548 155.842 214.309 154.646 214.472 151.148C214.536 148.662 215.012 126.759 214.166 121.56C213.384 116.168 209.332 109.857 200.467 109.857C197.175 109.857 191.865 111.231 186.803 115.078C186.489 115.434 186.313 115.892 186.305 116.367V116.474C186.903 119.28 186.903 122.557 186.903 127.507C186.903 130.356 186.903 133.327 186.867 136.297C186.831 142.337 186.803 148.036 186.903 152.345C186.903 155.28 188.673 155.985 190.102 156.547C190.877 156.718 191.488 156.868 192.106 157.01C193.294 157.303 194.531 157.602 196.372 157.894C196.645 159.145 196.62 160.443 196.301 161.683C196.226 162.149 196.043 162.59 195.768 162.972C191.175 162.816 186.462 162.68 179.658 162.68C177.597 162.68 174.234 162.766 171.262 162.844C168.852 162.908 166.577 162.972 165.283 162.98C164.933 162.152 164.778 161.255 164.828 160.358C164.756 159.513 164.921 158.664 165.305 157.908L167.132 157.573C168.724 157.288 170.103 157.046 171.397 156.718C173.644 156.006 174.49 154.781 174.653 151.91C175.094 145.215 175.435 125.919 174.49 121.09C172.883 113.34 168.482 109.408 161.402 109.408C157.257 109.408 152.018 111.409 147.738 114.622C147.326 115.023 147.002 115.506 146.785 116.039C146.569 116.573 146.465 117.145 146.479 117.72C146.479 120.021 146.479 122.756 146.479 125.691C146.479 135.378 146.415 147.437 146.65 152.651C146.792 154.261 147.361 156.17 150.368 156.868C151.029 157.06 152.167 157.246 153.489 157.466C154.25 157.595 155.082 157.73 155.942 157.887C156.215 159.592 156.076 161.339 155.537 162.98C154.214 162.98 152.586 162.894 150.724 162.816C147.88 162.687 144.325 162.531 140.309 162.531C135.56 162.531 132.254 162.687 129.602 162.816C127.818 162.901 126.275 162.972 124.732 162.98" fill="#21313C"/>
<path d="M277.177 106.702C274.611 106.648 272.087 107.36 269.925 108.746C264.65 111.959 261.963 118.376 261.963 127.807C261.963 145.458 270.786 157.788 283.419 157.788C286.806 157.895 290.11 156.723 292.675 154.504C296.557 151.334 298.618 144.852 298.618 135.778C298.618 118.391 289.995 106.702 277.163 106.702M279.594 164.333C256.773 164.333 248.647 147.559 248.647 131.867C248.647 120.905 253.119 112.336 261.942 106.388C268.121 102.556 275.214 100.455 282.48 100.305C299.891 100.305 312.055 112.849 312.055 130.82C312.055 143.029 307.199 152.673 298.007 158.699C293.592 161.406 285.921 164.333 279.594 164.333Z" fill="#21313C"/>
<path d="M509.505 106.702C506.934 106.643 504.405 107.355 502.24 108.746C496.965 111.959 494.277 118.376 494.277 127.807C494.277 145.458 503.1 157.788 515.733 157.788C519.13 157.902 522.445 156.73 525.018 154.504C528.899 151.334 530.954 144.852 530.954 135.778C530.954 118.391 522.338 106.702 509.505 106.702ZM511.937 164.333C489.116 164.333 480.99 147.559 480.99 131.874C480.99 120.898 485.462 112.336 494.292 106.388C500.467 102.553 507.559 100.452 514.823 100.305C532.234 100.305 544.397 112.856 544.397 130.813C544.397 143.036 539.542 152.673 530.35 158.692C525.935 161.406 518.264 164.333 511.937 164.333Z" fill="#21313C"/>
<path d="M432.666 106.103C425.635 106.103 421.085 111.666 421.085 120.278C421.085 128.889 425.002 139.125 436.014 139.125C437.905 139.125 441.332 138.284 443.031 136.411C445.59 134.053 447.297 129.181 447.297 124.038C447.297 112.806 441.837 106.103 432.701 106.103M431.791 165.537C429.805 165.515 427.846 166.005 426.104 166.961C420.537 170.523 417.957 174.084 417.957 178.223C417.957 182.097 419.457 185.182 422.684 187.917C426.594 191.236 431.869 192.853 438.801 192.853C452.444 192.853 458.558 185.502 458.558 178.223C458.558 173.151 456.02 169.753 450.794 167.83C446.77 166.356 440.045 165.544 431.813 165.544M432.723 200.446C424.533 200.446 418.632 198.715 413.592 194.826C408.686 191.037 406.482 185.41 406.482 181.521C406.535 179.014 407.49 176.611 409.17 174.754C410.592 173.13 413.897 170.088 421.54 164.824C421.658 164.774 421.759 164.69 421.83 164.582C421.901 164.474 421.938 164.348 421.938 164.219C421.94 164.075 421.894 163.934 421.806 163.821C421.718 163.707 421.594 163.626 421.454 163.592C415.163 161.177 413.265 157.181 412.689 155.045C412.689 154.966 412.689 154.845 412.625 154.71C412.447 153.869 412.276 153.072 413.421 152.252C414.303 151.626 415.71 150.785 417.217 149.895C419.345 148.715 421.386 147.384 423.324 145.913C423.428 145.801 423.506 145.666 423.55 145.519C423.594 145.373 423.604 145.218 423.58 145.067C423.555 144.915 423.496 144.772 423.407 144.647C423.319 144.522 423.203 144.419 423.068 144.346C413.755 141.212 409.063 134.281 409.063 123.689C409.034 120.387 409.801 117.125 411.299 114.183C412.797 111.24 414.98 108.703 417.665 106.787C421.412 103.816 430.817 100.248 436.91 100.248H437.265C443.529 100.397 447.062 101.715 451.953 103.524C454.735 104.532 457.683 105.001 460.641 104.906C465.823 104.906 468.091 103.261 470.039 101.345C470.355 102.208 470.523 103.118 470.537 104.037C470.656 106.227 470.062 108.397 468.845 110.22C467.785 111.694 465.29 112.763 463.008 112.763C462.773 112.763 462.546 112.763 462.297 112.727C461.096 112.642 459.906 112.445 458.742 112.136L458.159 112.343C457.975 112.613 458.095 112.912 458.245 113.297C458.281 113.372 458.31 113.451 458.33 113.532C458.746 115.433 459.029 117.361 459.176 119.302C459.176 130.378 454.818 135.2 450.105 138.776C445.548 142.202 440.136 144.302 434.464 144.845C434.343 144.845 433.753 144.894 432.644 144.994C431.933 145.058 431.009 145.144 430.874 145.144H430.739C429.715 145.429 427.042 146.704 427.042 149.076C427.042 151.041 428.251 153.485 434.031 153.926L437.77 154.19C445.391 154.724 454.911 155.386 459.389 156.904C462.36 157.95 464.926 159.909 466.722 162.501C468.518 165.093 469.452 168.187 469.392 171.342C469.392 181.278 462.34 190.624 450.531 196.336C444.963 199.001 438.865 200.372 432.694 200.346" fill="#21313C"/>
<path d="M397.791 157.681C394.45 157.232 392.011 156.776 389.132 155.423C388.567 154.836 388.195 154.09 388.066 153.286C387.76 148.62 387.76 135.08 387.76 126.219C387.76 118.989 386.551 112.685 383.494 108.162C379.847 103.041 374.686 100.035 368.003 100.035C362.081 100.035 354.183 104.095 347.657 109.665C347.5 109.814 346.498 110.769 346.519 109.287C346.541 107.806 346.768 104.8 346.91 102.877C346.973 102.366 346.916 101.847 346.743 101.362C346.571 100.877 346.287 100.44 345.915 100.085C341.649 102.221 329.685 105.071 325.256 105.505C322.028 106.132 321.21 109.245 324.658 110.32H324.708C327.468 111.083 330.103 112.244 332.528 113.768C333.893 114.822 333.744 116.325 333.744 117.529C333.893 127.608 333.893 143.107 333.438 151.533C333.289 154.846 332.372 156.049 329.941 156.655L330.168 156.577C328.317 157.041 326.439 157.393 324.545 157.631C323.784 158.379 323.784 162.745 324.545 163.65C326.066 163.65 333.787 163.201 340.185 163.201C348.986 163.201 353.543 163.65 355.825 163.65C356.742 162.595 357.041 158.535 356.437 157.631C354.334 157.535 352.245 157.232 350.202 156.726C347.778 156.128 347.166 154.917 347.017 152.217C346.718 145.137 346.718 130.093 346.718 119.858C346.718 117.009 347.472 115.648 348.382 114.872C351.418 112.165 356.437 110.363 360.837 110.363C365.103 110.363 367.946 111.716 370.079 113.518C372.563 115.69 374.121 118.734 374.43 122.023C375.034 127.722 374.878 139.182 374.878 149.09C374.878 154.511 374.43 155.871 372.454 156.47C371.544 156.918 369.112 157.374 366.226 157.673C365.316 158.578 365.615 162.788 366.226 163.692C370.172 163.692 374.757 163.244 381.411 163.244C389.765 163.244 395.082 163.692 397.208 163.692C398.118 162.638 398.424 158.706 397.819 157.673" fill="#21313C"/>
</svg>
