<svg width="480" height="326" viewBox="0 0 480 326" fill="none" xmlns="http://www.w3.org/2000/svg">
<path d="M115.4 296.972H96.8791C96.2241 265.71 94.4203 236.319 91.4713 208.779H91.3066L63.108 296.972H49.0068L20.9763 208.779H20.8153C18.7359 235.22 17.426 264.618 16.882 296.972H0C1.08801 257.628 3.82234 220.743 8.19226 186.314H31.1478L57.8648 267.624H58.0294L84.911 186.314H106.875C111.685 226.642 114.527 263.53 115.4 296.972ZM195.723 215.328C188.182 256.25 178.233 285.984 165.885 304.545C156.265 318.832 145.725 325.983 134.247 325.983C131.187 325.983 127.411 325.06 122.938 323.227V313.36C125.124 313.675 127.69 313.854 130.639 313.854C136.001 313.854 140.31 312.379 143.595 309.423C147.525 305.823 149.49 301.775 149.49 297.298C149.49 294.227 147.958 287.949 144.902 278.444L124.577 215.325H142.772L157.36 262.531C160.638 273.25 162.006 280.734 161.458 284.997C169.436 263.691 175.008 240.46 178.183 215.321H195.723V215.328Z" fill="#5D87A1"/>
<path d="M442.259 296.972H389.648V186.314H407.346V283.351H442.259V296.972ZM375.876 299.646L355.534 289.607C357.337 288.125 359.062 286.522 360.616 284.664C369.262 274.507 373.575 259.486 373.575 239.591C373.575 202.981 359.209 184.668 330.466 184.668C316.372 184.668 305.378 189.313 297.515 198.608C288.875 208.772 284.563 223.739 284.563 243.527C284.563 262.979 288.385 277.248 296.033 286.3C303.03 294.499 313.577 298.604 327.682 298.604C332.943 298.604 337.771 297.96 342.17 296.661L368.654 312.079L375.876 299.646ZM309.977 274.829C305.496 267.621 303.256 256.047 303.256 240.088C303.256 212.226 311.72 198.279 328.666 198.279C337.524 198.279 344.016 201.614 348.168 208.271C352.642 215.49 354.893 226.96 354.893 242.697C354.893 270.788 346.421 284.836 329.486 284.836C320.624 284.839 314.132 281.515 309.977 274.829ZM276.85 266.3C276.85 275.684 273.407 283.383 266.528 289.413C259.642 295.419 250.409 298.429 238.838 298.429C228.015 298.429 217.521 294.972 207.364 288.093L212.121 278.591C220.861 282.968 228.774 285.144 235.878 285.144C242.546 285.144 247.757 283.666 251.536 280.734C255.312 277.792 257.563 273.666 257.563 268.448C257.563 261.873 252.978 256.254 244.568 251.548C236.812 247.289 221.301 238.384 221.301 238.384C212.894 232.257 208.685 225.679 208.685 214.842C208.685 205.873 211.824 198.633 218.105 193.125C224.393 187.595 232.507 184.84 242.452 184.84C252.724 184.84 262.062 187.592 270.472 193.039L266.206 202.545C259.012 199.488 251.912 197.96 244.908 197.96C239.235 197.96 234.854 199.324 231.809 202.062C228.738 204.789 226.845 208.278 226.845 212.559C226.845 219.101 231.526 224.792 240.166 229.591C248.025 233.857 263.923 242.915 263.923 242.915C272.544 249.032 276.85 255.549 276.85 266.3Z" fill="#F8981D"/>
<path d="M464.478 149.25C453.777 148.978 445.492 150.056 438.538 152.997C436.53 153.799 433.338 153.799 433.058 156.337C434.143 157.41 434.268 159.143 435.209 160.624C436.813 163.298 439.608 166.895 442.16 168.77C444.962 170.917 447.775 173.043 450.724 174.915C455.924 178.133 461.819 180.004 466.887 183.211C469.839 185.076 472.774 187.488 475.73 189.496C477.183 190.566 478.114 192.302 480 192.971V192.563C479.055 191.36 478.787 189.621 477.86 188.282L473.844 184.41C469.965 179.199 465.144 174.65 459.944 170.914C455.663 167.965 446.301 163.956 444.565 159.024L444.293 158.752C447.235 158.477 450.724 157.41 453.519 156.591C458.068 155.392 462.216 155.664 466.883 154.465C469.031 153.928 471.16 153.255 473.315 152.593V151.387C470.895 148.978 469.17 145.779 466.626 143.502C459.818 137.622 452.317 131.871 444.565 127.057C440.413 124.376 435.073 122.651 430.653 120.372C429.061 119.566 426.376 119.169 425.439 117.83C423.041 114.889 421.692 111.016 419.952 107.534C416.087 100.186 412.333 92.0333 408.997 84.2633C406.585 79.0524 405.117 73.8485 402.175 69.0277C388.396 46.3012 373.433 32.5365 350.434 19.0259C345.492 16.2128 339.612 15.0139 333.33 13.5393L323.299 13.0096C321.158 12.072 319.015 9.52731 317.146 8.32477C309.516 3.51464 289.871 -6.91089 284.259 6.85382C280.644 15.5543 289.606 24.108 292.684 28.5209C294.957 31.5845 297.902 35.0704 299.491 38.5492C300.433 40.8218 300.697 43.234 301.639 45.6355C303.779 51.5193 305.78 58.0653 308.593 63.5554C310.06 66.3542 311.66 69.2961 313.535 71.83C314.609 73.3117 316.477 73.9666 316.885 76.3824C315.02 79.0452 314.874 83.0644 313.804 86.4071C308.993 101.514 310.872 120.228 317.69 131.33C319.823 134.673 324.913 142.031 331.72 139.211C337.747 136.806 336.412 129.187 338.144 122.505C338.541 120.89 338.28 119.831 339.082 118.772V119.033C340.946 122.773 342.829 126.377 344.558 130.128C348.706 136.674 355.928 143.495 361.944 148.03C365.147 150.449 367.685 154.586 371.697 156.065V155.664H371.432C370.62 154.465 369.431 153.928 368.365 152.997C365.953 150.589 363.283 147.647 361.411 144.977C355.806 137.486 350.846 129.194 346.444 120.636C344.289 116.485 342.432 111.947 340.696 107.802C339.887 106.202 339.887 103.79 338.545 102.985C336.534 105.923 333.602 108.468 332.135 112.068C329.59 117.827 329.326 124.91 328.381 132.275L327.855 132.533C323.596 131.463 322.114 127.057 320.496 123.317C316.491 113.818 315.819 98.572 319.294 87.6132C320.224 84.8109 324.251 75.9852 322.644 73.3153C321.838 70.7563 319.161 69.2997 317.694 67.2847C315.969 64.7508 314.079 61.544 312.877 58.731C309.67 51.2473 308.056 42.9549 304.602 35.4748C302.988 31.9889 300.186 28.3813 297.917 25.171C295.368 21.5634 292.566 19.0223 290.551 14.7455C289.885 13.2745 288.951 10.8694 290.021 9.26962C290.283 8.19593 290.827 7.79509 291.893 7.52666C293.625 6.06287 298.575 7.92392 300.311 8.72919C305.268 10.7334 309.412 12.6052 313.549 15.4111C315.421 16.7532 317.429 19.2943 319.831 19.9636H322.644C326.913 20.8941 331.727 20.2213 335.746 21.431C342.829 23.7072 349.246 27.0464 355.001 30.6504C372.513 41.7559 386.954 57.5356 396.703 76.3824C398.303 79.4532 398.983 82.2663 400.443 85.4694C403.26 92.0261 406.742 98.7116 409.537 105.129C412.347 111.41 415.024 117.823 419.036 123.041C421.037 125.847 429.075 127.318 432.679 128.789C435.345 129.988 439.497 131.055 441.902 132.526C446.451 135.328 450.982 138.546 455.259 141.627C457.388 143.23 464.081 146.573 464.478 149.25ZM328.098 33.0626C326.252 33.0434 324.412 33.2697 322.626 33.7355V34.0039H322.883C323.961 36.1405 325.832 37.6222 327.167 39.4869C328.245 41.6307 329.179 43.7566 330.235 45.8968L330.492 45.6319C332.378 44.297 333.316 42.1568 333.316 38.9464C332.504 38.0016 332.378 37.0782 331.702 36.1405C330.915 34.802 329.179 34.1363 328.098 33.0626Z" fill="#5D87A1"/>
<path d="M477.211 296.954H479.981V283.397H475.826L472.437 292.649L468.754 283.397H464.753V296.954H467.369V286.64H467.516L471.374 296.954H473.367L477.211 286.64V296.954ZM454.896 296.954H457.827V285.695H461.664V283.394H450.898V285.695H454.889L454.896 296.954Z" fill="#F8981D"/>
</svg>
