<svg width="702" height="189" viewBox="0 0 702 189" fill="none" xmlns="http://www.w3.org/2000/svg">
<path fill-rule="evenodd" clip-rule="evenodd" d="M354.626 0.000253045C354.139 0.00619552 353.647 0.122344 353.213 0.377098C352.347 0.886214 351.801 1.82122 351.801 2.82667V74.9C351.801 75.6082 351.471 76.2411 350.859 76.5962C350.246 76.9523 349.497 76.9523 348.882 76.5962L337.111 69.8128C335.357 68.801 333.215 68.8016 331.461 69.8128L284.473 96.9464C282.716 97.9603 281.648 99.9108 281.648 101.94V156.207C281.648 158.234 282.718 160.09 284.473 161.106L331.461 188.239C333.218 189.254 335.354 189.254 337.111 188.239L384.1 161.106C385.855 160.09 386.924 158.234 386.924 156.207V20.9158C386.924 18.8577 385.802 16.9263 384.005 15.9224L356.038 0.282905C355.599 0.0378018 355.112 -0.00517838 354.626 0.000253045ZM52.3558 67.7398C51.4597 67.7759 50.6179 67.9327 49.8134 68.3994L2.82495 95.533C1.07409 96.5457 0 98.3902 0 100.432L0.0939633 173.259C0.0939633 174.272 0.616286 175.213 1.50645 175.709C2.37894 176.232 3.46186 176.232 4.3314 175.709L32.2043 159.692C33.9699 158.643 35.1234 156.818 35.1234 154.793V120.782C35.1234 118.754 36.19 116.892 37.9483 115.883L49.8132 109.006C50.6987 108.493 51.6494 108.252 52.6381 108.252C53.6065 108.252 54.602 108.493 55.4631 109.006L67.3279 115.883C69.0861 116.892 70.1528 118.754 70.1528 120.782V154.793C70.1528 156.818 71.3178 158.655 73.0719 159.692L100.945 175.709C101.82 176.232 102.902 176.232 103.77 175.709C104.635 175.213 105.182 174.272 105.182 173.259L105.276 100.432C105.276 98.3902 104.214 96.5457 102.451 95.533L55.4629 68.3994C54.6682 67.9327 53.8226 67.7766 52.9205 67.7398H52.3558ZM474.592 68.3994C473.611 68.3982 472.649 68.6467 471.767 69.1532L424.779 96.2867C423.024 97.3009 421.954 99.1572 421.954 101.186V155.453C421.954 157.493 423.103 159.344 424.873 160.352L471.485 186.92C473.206 187.904 475.308 187.977 477.04 187.014L505.29 171.28C506.186 170.782 506.793 169.853 506.797 168.83C506.803 167.807 506.269 166.89 505.384 166.381L458.113 139.247C457.228 138.742 456.607 137.719 456.607 136.703V119.745C456.607 118.731 457.236 117.802 458.113 117.296L472.803 108.816C473.677 108.31 474.75 108.31 475.628 108.816L490.318 117.296C491.195 117.802 491.73 118.731 491.73 119.745V133.124C491.73 134.139 492.265 135.067 493.143 135.573C494.024 136.08 495.09 136.083 495.968 135.573L524.123 119.18C525.871 118.164 526.948 116.303 526.948 114.281V101.185C526.948 99.1622 525.875 97.3015 524.123 96.2858L477.417 69.1522C476.538 68.6421 475.574 68.4006 474.592 68.3994ZM334.098 108.911C334.343 108.911 334.631 108.972 334.851 109.098L350.953 118.426C351.39 118.679 351.707 119.145 351.707 119.65V138.305C351.707 138.811 351.393 139.278 350.953 139.529L334.851 148.857C334.413 149.107 333.877 149.107 333.439 148.857L317.336 139.529C316.898 139.276 316.583 138.811 316.583 138.305V119.65C316.583 119.145 316.899 118.68 317.336 118.426L333.439 109.1C333.659 108.973 333.853 108.913 334.098 108.913V108.911Z" fill="#404137"/>
<path fill-rule="evenodd" clip-rule="evenodd" d="M615.368 67.0803C613.739 67.0803 612.155 67.4174 610.754 68.2109L566.402 93.8371C563.532 95.4904 561.788 98.6156 561.788 101.939V153.098C561.788 156.42 563.532 159.541 566.402 161.2L577.985 167.889C583.612 170.664 585.687 170.621 588.249 170.621C596.58 170.621 601.337 165.563 601.337 156.772V106.273C601.337 105.559 600.72 105.048 600.019 105.048H594.463C593.752 105.048 593.145 105.559 593.145 106.273V156.772C593.145 160.669 589.089 164.587 582.505 161.294L570.451 154.228C570.026 153.996 569.698 153.586 569.698 153.098V101.939C569.698 101.454 570.022 100.961 570.451 100.715L614.709 75.1828C615.123 74.9446 615.617 74.9446 616.027 75.1828L660.285 100.715C660.707 100.968 661.038 101.439 661.038 101.939V153.098C661.038 153.586 660.793 154.087 660.379 154.322L616.027 179.854C615.647 180.08 615.123 180.08 614.709 179.854L603.315 173.071C602.976 172.872 602.513 172.887 602.185 173.071C599.04 174.855 598.449 175.062 595.499 176.086C594.772 176.339 593.669 176.733 595.876 177.97L610.754 186.732C612.17 187.552 613.748 187.956 615.368 187.956C617.01 187.956 618.566 187.552 619.982 186.732L664.334 161.2C667.204 159.53 668.948 156.42 668.948 153.098V101.939C668.948 98.6156 667.204 95.4973 664.334 93.8371L619.982 68.2109C618.592 67.4174 616.997 67.0803 615.368 67.0803ZM193.508 68.1166C192.529 68.1166 191.56 68.3638 190.683 68.8702L143.695 95.9098C141.938 96.9227 140.87 98.8761 140.87 100.903V155.17C140.87 157.199 141.939 159.054 143.695 160.069L190.683 187.203C192.44 188.218 194.577 188.218 196.333 187.203L243.322 160.069C245.075 159.054 246.147 157.199 246.147 155.17V100.903C246.147 98.8731 245.078 96.9227 243.322 95.9098L196.333 68.8702C195.457 68.3638 194.488 68.1166 193.508 68.1166ZM681.19 68.4V69.719H684.862V79.4228H686.369V69.719H690.135V68.4H681.19ZM691.454 68.4V79.4228H692.866V72.9222C692.866 72.6569 692.878 72.2466 692.866 71.6976C692.848 71.1383 692.866 70.6508 692.866 70.3783V70.0949L695.973 79.4219H697.48L700.682 70.0949C700.682 70.6882 700.602 71.261 700.588 71.7907C700.582 72.3062 700.588 72.6934 700.588 72.9213V79.4219H702V68.399H699.929L696.727 77.7264L693.62 68.399L691.454 68.4ZM627.233 103.636C614.603 103.636 607.082 109.013 607.082 117.956C607.082 127.658 614.547 130.323 626.668 131.523C641.169 132.943 642.299 135.074 642.299 137.93C642.299 142.883 638.352 144.996 629.022 144.996C617.3 144.996 614.724 142.068 613.861 136.234C613.76 135.608 613.278 135.103 612.637 135.103H606.893C606.185 135.103 605.575 135.713 605.575 136.422C605.575 143.89 609.635 152.721 629.022 152.721C643.056 152.721 651.151 147.21 651.151 137.553C651.151 127.98 644.612 125.41 631 123.609C617.244 121.788 615.933 120.897 615.933 117.674C615.933 115.013 617.044 111.456 627.233 111.456C636.333 111.456 639.697 113.419 641.075 119.558C641.196 120.135 641.704 120.594 642.299 120.594H648.043C648.397 120.594 648.74 120.377 648.985 120.123C649.226 119.852 649.396 119.546 649.362 119.181C648.473 108.609 641.425 103.636 627.233 103.636ZM474.497 116.543C474.309 116.543 474.102 116.543 473.932 116.637L464.892 121.913C464.553 122.106 464.327 122.465 464.327 122.855V133.218C464.327 133.609 464.553 133.966 464.892 134.161L473.932 139.342C474.271 139.538 474.633 139.538 474.968 139.342L484.008 134.161C484.343 133.968 484.573 133.609 484.573 133.218V122.855C484.573 122.465 484.343 122.107 484.008 121.913L474.968 116.637C474.8 116.537 474.685 116.543 474.497 116.543Z" fill="#83CD29"/>
</svg>
