<svg width="701" height="240" viewBox="0 0 701 240" fill="none" xmlns="http://www.w3.org/2000/svg">
<path d="M291.802 133.252H336.465L312.849 95.2001L269.504 164H249.777L302.499 81.3566C304.791 78.0173 308.611 76 312.849 76C316.947 76 320.767 77.9478 322.99 81.2174L375.92 164H356.193L346.885 148.626H301.665L291.802 133.252ZM496.713 148.626V76.8348H479.973V155.652C479.973 157.809 480.807 159.896 482.404 161.496C484.002 163.096 486.155 164 488.517 164H564.855L574.719 148.626H496.713ZM219.77 135.756C236.024 135.756 249.222 122.609 249.222 106.33C249.222 90.0522 236.024 76.8348 219.77 76.8348H146.536V164H163.27V92.2086H218.658C226.438 92.2086 232.69 98.539 232.69 106.33C232.69 114.122 226.438 120.452 218.658 120.452L171.466 120.383L221.437 164H245.749L212.129 135.756L219.77 135.756ZM43.5252 164C19.4978 164 0 144.522 0 120.452C0 96.3826 19.4981 76.8348 43.525 76.8348H94.1136C118.147 76.8348 137.631 96.3826 137.631 120.452C137.631 144.522 118.147 164 94.1136 164H43.5252ZM92.9884 148.626C108.555 148.626 121.162 136.035 121.162 120.452C121.162 104.87 108.555 92.2086 92.9884 92.2086H44.6431C29.0838 92.2086 16.4692 104.87 16.4692 120.452C16.4692 136.035 29.0838 148.626 44.6431 148.626H92.9884ZM410.859 164C386.825 164 367.307 144.522 367.307 120.452C367.307 96.3826 386.825 76.8348 410.859 76.8348H470.943L461.149 92.2086H411.97C396.411 92.2086 383.769 104.87 383.769 120.452C383.769 136.035 396.411 148.626 411.97 148.626H472.332L462.469 164H410.859ZM615.562 148.626C602.712 148.626 591.806 140 588.472 128.104H660.018L669.881 112.73H588.472C591.806 100.904 602.712 92.2086 615.562 92.2086H664.672L674.605 76.8348H614.451C590.417 76.8348 570.899 96.3826 570.899 120.452C570.899 144.522 590.417 164 614.451 164H666.061L675.924 148.626H615.562ZM683.565 86.087C683.562 85.0813 683.758 84.0849 684.141 83.1552C684.524 82.2254 685.087 81.3807 685.797 80.6695C686.507 79.9584 687.35 79.3948 688.278 79.0113C689.207 78.6278 690.202 78.4319 691.206 78.4348C695.513 78.4348 698.916 81.8435 698.916 86.087C698.916 90.3999 695.513 93.8086 691.206 93.8086C686.969 93.8086 683.565 90.3999 683.565 86.087ZM691.206 95.9651C696.624 95.9651 701 91.5826 701 86.1565C701 80.7304 696.624 76.3478 691.206 76.3478C685.857 76.3478 681.481 80.7304 681.481 86.1565C681.481 91.5826 685.857 95.9651 691.206 95.9651ZM690.303 80.313C691.831 80.313 692.456 80.3826 693.151 80.6607C695.096 81.2869 695.304 83.026 695.304 83.7217C695.304 83.8608 695.304 84.2086 695.165 84.626C695.096 85.0434 694.818 85.8782 693.845 86.5042C693.707 86.5739 693.637 86.6434 693.359 86.7826L695.86 91.3043H693.429L691.206 87.1304H689.678V91.3043H687.525V80.313H690.303ZM691.067 85.3217C691.761 85.2522 692.456 85.2522 692.873 84.626C693.081 84.3478 693.151 84.0696 693.151 83.6522C693.151 83.0957 692.803 82.6087 692.317 82.3304C691.831 82.1218 691.345 82.1218 690.303 82.1218H689.678V85.3217H691.067Z" fill="#F80000"/>
</svg>
