<svg width="312" height="320" viewBox="0 0 312 320" fill="none" xmlns="http://www.w3.org/2000/svg">
<path d="M232.914 232.832C234.951 215.886 234.341 213.4 246.984 216.145L250.194 216.426C259.916 216.868 272.634 214.865 280.105 211.4C296.189 203.95 305.726 191.51 289.867 194.779C253.691 202.229 251.204 190 251.204 190C289.403 133.415 305.372 61.5865 291.589 44.0043C253.994 -3.9536 188.918 18.7253 187.829 19.3141L187.483 19.3788C180.335 17.8974 172.336 17.0128 163.349 16.8677C146.979 16.5992 134.557 21.1523 125.134 28.2876C125.134 28.2876 9.04273 -19.4614 14.4435 88.3368C15.5921 111.269 47.3682 261.858 85.2671 216.373C99.119 199.74 112.505 185.677 112.505 185.677C119.153 190.086 127.111 192.335 135.458 191.527L136.103 190.978C135.901 193.043 135.99 195.064 136.361 197.455C126.6 208.345 129.468 210.258 109.949 214.268C90.2004 218.332 101.802 225.566 109.375 227.456C118.559 229.749 139.803 232.997 154.161 212.935L153.589 215.224C157.419 218.283 157.16 237.21 157.703 250.733C158.247 264.257 159.154 276.877 161.915 284.317C164.676 291.756 167.935 310.921 193.588 305.432C215.028 300.845 231.42 294.243 232.914 232.832Z" fill="black" stroke="black" stroke-width="26.8961"/>
<path d="M289.87 194.778C253.691 202.228 251.203 189.999 251.203 189.999C289.403 133.411 305.372 61.5805 291.591 44.0005C253.996 -3.95462 188.918 18.725 187.832 19.3138L187.482 19.3763C180.335 17.895 172.335 17.0125 163.345 16.866C146.974 16.5982 134.556 21.1506 125.134 28.2845C125.134 28.2845 9.04016 -19.4624 14.4395 88.3351C15.5881 111.268 47.3635 261.857 85.2638 216.372C99.1164 199.74 112.501 185.677 112.501 185.677C119.149 190.086 127.107 192.335 135.45 191.527L136.098 190.978C135.897 193.043 135.989 195.063 136.358 197.455C126.594 208.345 129.463 210.257 109.945 214.268C90.1957 218.332 101.798 225.566 109.373 227.456C118.556 229.749 139.802 232.997 154.157 212.934L153.585 215.223C157.41 218.282 160.097 235.121 159.646 250.386C159.196 265.651 158.895 276.131 161.91 284.316C164.924 292.502 167.928 310.92 193.587 305.432C215.026 300.845 226.136 288.958 227.682 269.13C228.779 255.035 231.261 257.118 231.418 244.516L233.409 238.549C235.705 219.442 233.773 213.277 246.982 216.144L250.192 216.425C259.914 216.867 272.638 214.864 280.106 211.399C296.187 203.949 305.724 191.509 289.868 194.778H289.87Z" fill="#336791"/>
<path d="M155.71 205.731C154.714 241.286 155.961 277.088 159.446 285.79C162.932 294.491 170.395 311.415 196.055 305.927C217.493 301.339 225.293 292.46 228.677 272.861C231.17 258.44 235.976 218.393 236.593 210.188M124.954 27.49C124.954 27.49 8.78186 -19.9128 14.1826 87.8853C15.3313 110.818 47.1088 261.412 85.0084 215.925C98.8581 199.29 111.384 186.244 111.384 186.244M187.704 18.8382C183.683 20.097 252.327 -6.21386 291.338 43.5514C305.118 61.1322 289.149 132.963 250.95 189.553" stroke="white" stroke-width="8.96535" stroke-linecap="round" stroke-linejoin="round"/>
<path d="M250.95 189.552C250.95 189.552 253.439 201.785 289.619 194.329C305.471 191.061 295.931 203.502 279.854 210.956C266.659 217.069 237.078 218.636 236.594 210.188C235.351 188.392 252.163 195.014 250.95 189.552ZM250.95 189.552C249.853 184.633 242.335 179.806 237.361 167.768C233.019 157.261 177.811 76.6837 252.672 88.6508C255.414 88.0842 233.147 17.5622 163.088 16.4155C93.0447 15.2688 95.3427 102.411 95.3427 102.411" stroke="white" stroke-width="8.96535" stroke-linecap="round" stroke-linejoin="bevel"/>
<path d="M136.104 197.006C126.338 207.896 129.21 209.809 109.691 213.821C89.9412 217.885 101.545 225.118 109.118 227.008C118.301 229.302 139.547 232.55 153.902 212.482C158.273 206.373 153.876 196.624 147.871 194.138C144.97 192.939 141.09 191.435 136.104 197.006Z" stroke="white" stroke-width="8.96535" stroke-linecap="round" stroke-linejoin="round"/>
<path d="M135.464 196.816C134.48 190.413 137.571 182.794 140.884 173.88C145.862 160.505 157.349 147.129 148.16 104.703C141.311 73.0883 95.3709 98.1239 95.3421 102.411C95.3141 106.696 97.42 124.139 94.5747 144.451C90.862 170.957 111.468 193.373 135.197 191.08" stroke="white" stroke-width="8.96535" stroke-linecap="round" stroke-linejoin="round"/>
<path d="M124.533 101.768C124.326 103.233 127.218 107.139 130.989 107.661C134.753 108.185 137.976 105.132 138.18 103.67C138.384 102.205 135.496 100.593 131.723 100.068C127.957 99.5443 124.733 100.308 124.534 101.768H124.533Z" fill="white" stroke="white" stroke-width="2.98845"/>
<path d="M239.196 98.7833C239.4 100.248 236.512 104.154 232.74 104.676C228.973 105.2 225.75 102.147 225.544 100.685C225.345 99.2205 228.234 97.6078 232.002 97.0836C235.77 96.5595 238.992 97.3227 239.196 98.784V98.7833Z" fill="white" stroke="white" stroke-width="1.49458"/>
<path d="M252.671 88.6504C253.292 100.135 250.193 107.957 249.803 120.183C249.225 137.953 258.289 158.293 244.631 178.657" stroke="white" stroke-width="8.96535" stroke-linecap="round" stroke-linejoin="round"/>
</svg>
