<svg width="565" height="191" viewBox="0 0 565 191" fill="none" xmlns="http://www.w3.org/2000/svg">
<path fill-rule="evenodd" clip-rule="evenodd" d="M57.5768 0.809281C51.9751 2.37361 48.0945 5.81216 45.1369 11.8314C40.4994 21.2704 39.9087 35.8653 43.4498 53.5055L44.6796 59.6303L42.4504 60.2241C34.4833 62.348 21.4555 68.3462 14.8107 72.9508C9.12248 76.8926 3.92183 82.5197 1.78295 87.0469C0.207166 90.3833 0 91.3676 0 95.5293C0 99.7107 0.19725 100.639 1.76477 103.83C4.00173 108.384 8.6839 113.586 14.3121 117.772C19.4296 121.578 32.1069 127.941 38.8437 130.085C41.4195 130.905 43.7341 131.761 43.9876 131.988C44.241 132.214 43.9358 134.976 43.3099 138.125C41.4724 147.366 40.8895 153.83 41.2255 161.249C42.3418 185.882 54.6847 195.812 75.435 188.772C83.5552 186.016 94.9373 178.909 103.099 171.498L107.143 167.827L112.25 172.316C118.934 178.191 128.558 184.61 134.579 187.209C157.64 197.164 171.481 187.3 172.575 160.131C172.935 151.172 171.644 138.862 169.671 132.46C169.453 131.749 170.615 131.143 175.317 129.514C193.51 123.214 206.791 113.89 211.671 103.991C213.588 100.102 213.777 99.3152 213.774 95.2691C213.77 91.3958 213.543 90.3579 212.015 87.2309C206.614 76.174 191.954 66.7167 169.625 59.8866C169.167 59.7463 169.201 58.831 169.753 56.4773C172.244 45.8435 172.984 29.2225 171.324 21.166C169.207 10.894 164.931 4.32737 158.5 1.47544C147.557 -3.37774 128.757 3.96943 110.68 20.1635L106.757 23.6777L105.721 22.5243C103.713 20.2889 96.3588 14.4132 91.0805 10.8266C78.5496 2.3123 65.8221 -1.49358 57.5768 0.809281ZM68.8938 10.1743C76.3865 12.0645 88.503 19.3879 97.68 27.5742L100.467 30.0599L95.5141 35.8427C92.7901 39.0233 88.7035 44.13 86.4324 47.1913L82.3034 52.7565L74.4003 53.7436C70.0542 54.2866 63.6215 55.2919 60.1063 55.9779L53.7145 57.2247L53.1982 55.2422C50.8241 46.1291 49.7144 30.9503 50.9166 24.0307C52.2081 16.5951 54.855 11.6602 58.3757 10.1229C60.6237 9.14133 64.8816 9.16177 68.8938 10.1743ZM156.281 10.7267C161.682 14.8209 164.227 26.238 162.899 40.4114C162.522 44.4399 161.773 49.8488 161.235 52.4311C160.399 56.4486 160.104 57.1109 159.194 57.0181C158.608 56.9584 154.782 56.2911 150.691 55.5355C146.6 54.7793 140.616 53.8651 137.393 53.5033L131.532 52.846L128.216 48.3579C124.414 43.2114 120.223 37.9566 116.259 33.3658L113.509 30.1792L117.517 26.4672C125.065 19.4769 134.452 13.4885 142.317 10.6482C147.074 8.93033 153.963 8.96899 156.281 10.7267ZM114.156 45.2502L119.334 51.6026L113.281 51.7583C109.951 51.8439 104.352 51.8439 100.838 51.7583L94.4491 51.6026L98.6718 46.355C100.994 43.4688 103.778 40.1789 104.858 39.0443C107.247 36.5337 106.817 36.247 114.156 45.2502ZM256.479 100.764V144.126H261.713H266.947V126.988V109.851L275.857 110.003L284.767 110.155L295.555 127.116L306.342 144.077L312.812 144.101L319.282 144.126L307.647 126.605L296.014 109.085L299.524 108.19C311.654 105.099 318.223 96.4699 318.259 83.5824C318.267 80.8161 317.982 77.4671 317.625 76.1392C315.815 69.4013 310.97 63.2268 305.315 60.4533C299.434 57.5688 297.986 57.4163 276.451 57.4091L256.479 57.4025V100.764ZM125.962 61.8558C127.646 62.76 139.448 82.2026 144.161 91.8372L146.008 95.6149L142.783 101.78C139.034 108.948 128.26 127.176 126.921 128.617C126.14 129.457 124.577 129.66 116.31 129.999C110.977 130.217 102.27 130.219 96.961 130.001L87.3079 129.605L83.2616 123.194C78.0791 114.982 73.2069 106.472 70.1892 100.358L67.8079 95.5326L69.3495 92.3487C72.6454 85.5412 82.374 68.7826 86.8953 62.1231C87.1112 61.8055 90.2105 61.3863 93.7824 61.1913C102.004 60.7433 124.765 61.2134 125.962 61.8558ZM75.208 63.1588C75.208 63.2864 74.008 65.3374 72.5413 67.716C71.0746 70.0945 68.2977 74.8709 66.3698 78.331L62.8645 84.6209L61.9301 82.4158C59.6903 77.1285 56.3884 67.2636 56.6391 66.6084C56.8054 66.1732 59.6898 65.4031 63.9946 64.6447C67.8888 63.9587 71.4476 63.3201 71.9021 63.2257C73.2438 62.9478 75.208 62.9075 75.208 63.1588ZM146.229 64.0443C149.986 64.6585 154.116 65.428 155.407 65.7539L157.753 66.3461L156.494 70.0221C155.248 73.6612 151.241 84.0288 150.949 84.3701C150.866 84.4674 149.364 81.9817 147.612 78.8464C145.86 75.7105 143.109 70.9617 141.498 68.2926C139.888 65.6235 138.57 63.3246 138.57 63.1831C138.57 62.8031 138.804 62.8296 146.229 64.0443ZM539.679 72.5929V81.1547H534.445H529.211V85.5738V89.9928H534.412H539.613L539.784 113.055C539.947 135.065 540.007 136.229 541.102 138.602C542.556 141.749 545.603 144.449 548.625 145.267C552.108 146.21 559.309 145.67 562.031 144.262C565.456 142.488 565.587 142.107 564.091 138.258L562.777 134.876L560.754 135.911C558.251 137.19 554.142 137.256 552.416 136.044C549.73 134.158 549.597 132.967 549.597 110.725V89.9928H555.933H562.269V85.5738V81.1547H555.933H549.597V72.5929V64.031H544.638H539.679V72.5929ZM297.644 68.3744C301.439 70.0912 305.085 74.0484 306.329 77.8012C307.598 81.6342 307.276 87.6639 305.629 90.8854C301.527 98.907 296.272 100.674 277.416 100.374L267.223 100.212L267.076 83.4604L266.93 66.709L280.851 66.8924C294.076 67.0664 294.914 67.1404 297.644 68.3744ZM48.1056 71.2467C49.5811 75.8204 52.753 84.1713 55.1905 89.8983L57.6187 95.6044L54.6363 102.603C52.9966 106.453 50.6075 112.62 49.3282 116.31L47.0014 123.017L45.0521 122.477C43.9799 122.18 40.847 121.074 38.09 120.02C22.9966 114.245 11.5953 105.518 9.34287 98.0155C7.14614 90.6965 14.6438 82.2379 29.7328 75.0118C35.4541 72.2714 45.8102 68.4213 46.7987 68.6672C47.0824 68.7373 47.6708 69.8984 48.1056 71.2467ZM185.086 75.7193C191.872 79.117 196.325 82.2501 200.167 86.33C203.491 89.8596 204.687 92.2912 204.687 95.521C204.687 103.264 193.431 112.655 176.036 119.422C166.189 123.253 167.244 123.494 165.018 116.9C163.972 113.797 161.563 107.668 159.665 103.279L156.216 95.2978L159.205 88.3025C160.848 84.4552 163.082 78.7248 164.168 75.5691C165.254 72.4134 166.251 69.5261 166.384 69.1538C166.721 68.2076 177.973 72.1576 185.086 75.7193ZM100.738 77.1721C95.3312 79.1082 91.3141 83.0185 89.1091 88.4914C87.9471 91.3754 87.7889 92.495 88.0038 96.3109C88.3085 101.734 89.8038 105.211 93.3725 108.797C97.4519 112.897 100.362 114.021 106.889 114.021C111.851 114.021 112.689 113.868 115.31 112.483C119.194 110.432 122.386 107.133 124.163 103.332C126.137 99.112 126.258 91.6643 124.419 87.6634C122.719 83.9663 118.598 79.776 114.948 78.0333C110.83 76.0668 104.838 75.7039 100.738 77.1721ZM354.827 79.8544C346.722 81.0719 339.303 85.3478 334.707 91.4505C326.679 102.111 325.375 116.761 331.367 128.951C333.978 134.262 338.719 139.3 343.521 141.866C355.319 148.17 372.793 146.613 382.366 138.403C384.82 136.299 384.773 135.89 381.646 132.077L380.145 130.248L376.421 132.751C371.39 136.133 366.562 137.618 360.613 137.613C352.644 137.604 346.906 134.871 342.629 129.048C340.308 125.887 338.023 120.047 338.023 117.277V115.954H363.368H388.712V112.059C388.712 97.146 379.262 83.7051 366.673 80.7134C363.642 79.9931 357.075 79.5169 354.827 79.8544ZM423.864 80.0848C417.305 80.9846 411.313 83.7934 406.029 88.4445L404.162 90.0872L406.375 93.354C407.593 95.1509 408.737 96.6213 408.919 96.6213C409.102 96.6213 410.31 95.6425 411.604 94.4466C416.391 90.0226 422.515 88.013 429.9 88.4417C435.27 88.7532 439.323 90.7606 441.881 94.3764C443.501 96.6638 443.538 96.8693 443.714 104.45L443.895 112.188L440.96 109.967C434.212 104.862 424.872 103.03 416.603 105.189C410.137 106.877 404.666 111.642 402.465 117.5C400.852 121.793 401.113 129.842 402.991 133.75C405.049 138.031 408.183 141.123 412.765 143.393C416.368 145.179 417.539 145.477 421.709 145.677C424.348 145.804 427.876 145.623 429.547 145.275C433.649 144.421 438.799 141.907 441.548 139.417L443.81 137.368V140.747V144.126H448.79H453.771L453.59 119.683C453.394 93.1955 453.387 93.1275 450.236 88.5439C445.667 81.896 435.18 78.5326 423.864 80.0848ZM496.374 80.0196C486.256 81.6099 477.572 87.9125 473.346 96.7312C467.888 108.123 468.767 122.385 475.558 132.627C481.176 141.1 490.21 145.783 500.935 145.783C509.69 145.783 515.15 143.748 520.801 138.382L524.363 134.998L521.033 132.094L517.704 129.191L515.215 131.615C510.964 135.758 508.451 136.672 501.387 136.647C494.316 136.622 491.749 135.737 487.59 131.894C482.576 127.26 480.174 121.136 480.174 112.983C480.174 99.5047 486.492 90.9467 498.015 88.8184C504.584 87.6048 510.623 89.4619 515.455 94.1815L517.954 96.6213L520.913 93.6169C523.811 90.675 523.854 90.5849 522.985 89.2554C520.873 86.0239 514.315 81.9115 509.376 80.7217C505.743 79.8462 499.59 79.5142 496.374 80.0196ZM366.52 89.3249C373.26 91.9073 377.829 98.0542 379.026 106.15L379.414 108.774H358.656H337.898L338.274 106.15C339.362 98.5778 345.307 91.0788 351.95 88.8985C356.177 87.5109 362.248 87.6888 366.52 89.3249ZM65.7775 111.674C67.2993 114.484 70.1418 119.393 72.095 122.583C74.0482 125.773 75.6096 128.423 75.565 128.473C75.4151 128.638 61.7482 126.53 58.8407 125.892L55.9729 125.264L58.6523 117.709C61.4232 109.898 62.6921 106.564 62.8943 106.564C62.9587 106.564 64.2563 108.864 65.7775 111.674ZM155.41 117.206C157.19 121.944 157.876 124.439 157.503 124.813C156.85 125.468 139.294 128.464 138.831 128C138.657 127.826 139.846 125.48 141.471 122.786C143.097 120.092 145.873 115.3 147.64 112.138L150.852 106.387L151.807 108.271C152.332 109.307 153.953 113.327 155.41 117.206ZM436.647 113.538C438.617 114.469 441.034 115.99 442.019 116.918L443.81 118.607V125.194C443.81 131.328 443.724 131.857 442.57 132.891C438.115 136.883 433.31 138.667 426.969 138.685C421.743 138.699 418.306 137.494 415.23 134.569C410.27 129.852 409.935 121.807 414.476 116.488C417.833 112.557 420.728 111.521 427.832 111.708C432.357 111.828 433.551 112.075 436.647 113.538ZM161.9 139.707C165.425 158.121 163.113 175.49 156.507 180.205C154.216 181.84 148.171 182.153 143.728 180.866C135.898 178.597 126.034 172.406 116.363 163.689L113.675 161.265L117.744 156.403C122.305 150.954 127.713 143.902 129.968 140.466L131.463 138.187L135.98 137.796C140.27 137.425 154.271 135.226 158.405 134.275C159.646 133.989 160.453 134.042 160.667 134.422C160.851 134.746 161.406 137.124 161.9 139.707ZM60.6072 135.602C63.3345 136.107 69.3495 136.95 73.9744 137.475C78.5992 138 82.4616 138.531 82.5574 138.654C82.6533 138.777 84.9938 141.861 87.7586 145.507C90.5229 149.152 94.5268 154.124 96.6558 156.554C98.7842 158.985 100.532 161.14 100.54 161.343C100.564 162.035 90.3818 170.276 85.8082 173.266C76.7435 179.191 68.9798 181.959 62.4562 181.589C56.747 181.265 54.2181 178.846 51.9133 171.501C50.8301 168.05 50.6913 166.426 50.704 157.383C50.7161 148.914 50.9337 146.129 51.9762 141.12C53.412 134.221 53.4858 134.041 54.7305 134.411C55.2352 134.561 57.8798 135.097 60.6072 135.602ZM119.286 139.489C119.286 139.975 112.706 148.347 109.781 151.583L107.285 154.345L106.051 153.24C105.059 152.351 97.0332 142.734 94.8734 139.845C94.464 139.297 96.9423 139.154 106.822 139.154C113.677 139.154 119.286 139.305 119.286 139.489Z" fill="#00D8FF"/>
</svg>
