<svg width="804" height="190" viewBox="0 0 804 190" fill="none" xmlns="http://www.w3.org/2000/svg">
<path d="M716.694 33.4248C718.462 33.4318 720.185 33.9596 721.65 34.942C723.121 35.9244 724.262 37.3178 724.945 38.9475C725.621 40.5773 725.806 42.371 725.465 44.1039C725.129 45.8367 724.29 47.4317 723.048 48.6893C721.365 50.3707 719.077 51.3146 716.7 51.3124C714.317 51.3101 712.035 50.3623 710.352 48.6776C708.668 46.9928 707.729 44.709 707.729 42.3285C707.729 39.948 708.679 37.6658 710.363 35.9841C711.191 35.147 712.175 34.488 713.266 34.0478C714.351 33.6075 715.52 33.3955 716.694 33.4248Z" fill="#4A2564"/>
<path d="M721.909 64.662C721.249 63.9955 720.466 63.4648 719.604 63.1019C718.743 62.7396 717.815 62.5511 716.881 62.5483H716.674C716.366 62.5578 716.064 62.5847 715.762 62.6283C715.611 62.6283 715.46 62.6283 715.314 62.6283H715.052C713.418 62.9884 711.953 63.901 710.913 65.2116C709.872 66.5229 709.319 68.1528 709.335 69.8264V127.376H724.079V69.8952C724.096 68.9206 723.911 67.9532 723.537 67.053C723.162 66.1527 722.608 65.3391 721.909 64.662Z" fill="#4A2564"/>
<path d="M601.299 73.9049C600.051 71.2634 598.222 68.9423 595.94 67.1183C593.334 65.0527 590.375 63.4737 587.209 62.4565C583.361 61.2314 579.34 60.6409 575.301 60.7086C570.502 60.6577 565.743 61.5143 561.262 63.2332C557.118 64.8363 553.337 67.257 550.143 70.3514C546.955 73.4654 544.444 77.2084 542.771 81.3429C540.959 85.8391 540.058 90.6507 540.12 95.4987C540.025 100.439 540.948 105.347 542.833 109.917C544.527 113.94 547.067 117.555 550.272 120.52C553.449 123.431 557.191 125.656 561.262 127.056C565.614 128.55 570.184 129.295 574.787 129.26C577.969 129.281 581.152 129.021 584.295 128.484C586.874 128.038 589.424 127.431 591.93 126.667C593.004 126.335 593.983 125.982 594.889 125.627C595.605 125.326 596.259 124.887 596.807 124.336C597.372 123.787 597.82 123.126 598.116 122.397C598.413 121.668 598.552 120.885 598.536 120.097C598.536 119.405 598.418 118.717 598.189 118.064C598.004 117.537 597.741 117.04 597.411 116.59C597.227 116.333 597.026 116.089 596.807 115.858C596.259 115.296 595.599 114.851 594.867 114.553C594.139 114.254 593.356 114.107 592.568 114.122C591.785 114.119 591.007 114.266 590.28 114.556C589.838 114.727 589.413 114.888 588.932 115.048C587.265 115.608 585.559 116.044 583.825 116.35C581.778 116.706 579.698 116.878 577.617 116.864C570.983 116.864 565.877 115.504 562.292 112.785C560.569 111.525 559.115 109.933 558.013 108.102C556.916 106.272 556.195 104.239 555.893 102.125C557.61 102.205 559.232 102.274 560.742 102.319C562.247 102.365 563.858 102.319 565.586 102.319C571.744 102.43 577.902 101.932 583.96 100.834C588.009 100.131 591.902 98.7318 595.471 96.6981C598.038 95.2213 600.113 93.0143 601.427 90.3572C602.574 87.7727 603.145 84.9696 603.105 82.1425C603.117 79.2969 602.501 76.4837 601.299 73.9049ZM587.987 85.673C587.288 87.0682 586.158 88.2016 584.765 88.9061C582.612 90.0189 580.296 90.79 577.908 91.1914C574.104 91.8675 570.245 92.17 566.386 92.0939H560.955C559.137 92.0939 557.241 92.0939 555.244 91.9681C555.328 89.4469 555.831 86.9574 556.726 84.5989C557.61 82.27 558.908 80.1211 560.558 78.258C562.247 76.363 564.322 74.8448 566.637 73.802C569.283 72.6333 572.152 72.0602 575.05 72.1223C578.45 72.002 581.818 72.8458 584.765 74.5557C586.029 75.31 587.064 76.3948 587.758 77.6932C588.451 78.9916 588.781 80.4549 588.703 81.9255C588.725 83.2105 588.479 84.4859 587.987 85.673Z" fill="#4A2564"/>
<path d="M686.938 34.3051C685.92 33.2789 684.622 32.5772 683.207 32.2888C681.792 32.0005 680.321 32.1384 678.984 32.6852C677.647 33.2318 676.501 34.1629 675.695 35.3603C674.884 36.5578 674.448 37.9679 674.442 39.4122V70.672C672.015 67.7011 668.972 65.2956 665.521 63.6226C661.416 61.6096 656.891 60.6104 652.321 60.7088C647.819 60.6641 643.35 61.5229 639.188 63.234C635.251 64.8729 631.682 67.2946 628.706 70.3521C625.692 73.4846 623.32 77.1756 621.726 81.2178C620.015 85.5843 619.159 90.2388 619.209 94.928C619.17 99.6294 620.071 104.292 621.86 108.638C623.527 112.72 626.016 116.418 629.165 119.504C632.353 122.57 636.112 124.984 640.229 126.61C644.692 128.374 649.457 129.255 654.262 129.204C658.971 129.268 663.659 128.495 668.1 126.919C672.239 125.426 675.992 123.038 679.096 119.927C682.334 116.616 684.829 112.65 686.412 108.295C688.274 103.024 689.175 97.4576 689.063 91.866V39.4922C689.08 38.5282 688.901 37.5705 688.537 36.6783C688.174 35.7861 687.626 34.9784 686.938 34.3051ZM672.96 103.52C672.048 105.967 670.661 108.208 668.877 110.112C667.11 111.957 664.967 113.412 662.607 114.385C660.029 115.452 657.266 115.988 654.48 115.962C651.678 116.008 648.898 115.455 646.331 114.339C643.965 113.308 641.834 111.813 640.055 109.941C638.254 108.048 636.867 105.803 635.978 103.348C635.01 100.676 634.529 97.8507 634.557 95.0079C634.529 92.1433 635.01 89.2966 635.978 86.5987C636.861 84.121 638.249 81.853 640.055 79.9379C641.834 78.0736 643.97 76.5824 646.331 75.5507C648.904 74.4793 651.661 73.928 654.447 73.928C657.232 73.928 659.989 74.4793 662.557 75.5507C664.945 76.574 667.082 78.0932 668.832 80.0067C670.605 81.9738 671.987 84.2569 672.915 86.7362C673.911 89.3794 674.414 92.183 674.398 95.0079C674.442 97.9094 673.956 100.794 672.96 103.52Z" fill="#4A2564"/>
<path d="M442.03 76.6792C440.528 73.3259 438.294 70.3512 435.493 67.973C432.54 65.5233 429.135 63.6792 425.469 62.5458C421.37 61.2569 417.093 60.6206 412.795 60.6608C408.531 60.6195 404.288 61.2558 400.224 62.5458C396.563 63.6814 393.162 65.5256 390.212 67.973C387.407 70.3612 385.157 73.3321 383.618 76.6792C381.975 80.3127 381.159 84.266 381.23 88.2528V120.073C381.23 122.027 382.006 123.901 383.389 125.283C384.771 126.666 386.646 127.442 388.601 127.442C390.556 127.442 392.431 126.666 393.813 125.283C395.196 123.901 395.972 122.027 395.972 120.073V91.9662C395.972 86.1011 397.374 81.6379 400.178 78.5759C402.982 75.5139 407.172 73.9902 412.75 74.0053C418.258 74.0053 422.449 75.529 425.321 78.5759C428.193 81.6222 429.622 86.086 429.607 91.9662V120.073C429.607 122.027 430.384 123.901 431.766 125.283C433.148 126.666 435.023 127.442 436.978 127.442C438.934 127.442 440.808 126.666 442.19 125.283C443.573 123.901 444.35 122.027 444.35 120.073V88.2528C444.414 84.2732 443.622 80.3266 442.03 76.6792Z" fill="#4A2564"/>
<path d="M519.625 94.789C515.663 91.8182 510.101 89.8572 502.939 88.905L489.75 87.2252C486.896 87.0038 484.12 86.1863 481.602 84.8258C480.704 84.3187 479.963 83.5733 479.461 82.6725C478.959 81.7711 478.715 80.7495 478.756 79.719C478.756 74.4634 483.758 71.8353 493.762 71.8353C496.97 71.8023 500.174 72.0819 503.327 72.6696C505.745 73.1421 508.125 73.7913 510.448 74.6116C510.767 74.7374 511.019 74.8632 511.327 74.9773C511.463 75.0461 511.605 75.1037 511.75 75.1489C512.402 75.3894 513.09 75.513 513.785 75.5146C514.93 75.5079 516.047 75.164 516.998 74.5255C517.949 73.8864 518.689 72.9816 519.127 71.9237C519.565 70.8663 519.681 69.7027 519.461 68.5793C519.24 67.456 518.693 66.4226 517.888 65.6085C517.362 65.0717 516.732 64.6478 516.036 64.3632C515.568 64.1345 515.076 63.9176 514.539 63.7006C509.549 61.705 502.558 60.7068 493.568 60.7068C488.966 60.6179 484.374 61.1642 479.922 62.3295C476.608 63.1923 473.5 64.7071 470.779 66.7855C468.577 68.5234 466.825 70.7645 465.67 73.3205C464.593 75.7886 464.044 78.4547 464.059 81.1471C463.978 83.9843 464.574 86.8003 465.796 89.3618C466.954 91.6141 468.616 93.5689 470.653 95.0748C472.906 96.7439 475.431 98.0115 478.116 98.8223C481.215 99.7611 484.4 100.382 487.625 100.673L497.705 101.815C502.368 102.33 505.602 103.221 507.408 104.466C508.296 105.07 509.013 105.894 509.489 106.857C509.966 107.82 510.186 108.889 510.128 109.962C510.168 111.283 509.779 112.582 509.018 113.663C508.258 114.744 507.168 115.551 505.91 115.96C502.387 117.24 498.651 117.833 494.905 117.708C491.7 117.732 488.499 117.472 485.339 116.931C482.69 116.484 480.075 115.858 477.51 115.058C475.91 114.543 474.562 114.052 473.316 113.561L473.122 113.481C472.439 113.222 471.715 113.09 470.985 113.092C469.469 113.092 468.016 113.694 466.944 114.766C465.872 115.837 465.27 117.29 465.27 118.805C465.251 119.567 465.39 120.324 465.677 121.03C465.964 121.736 466.394 122.374 466.939 122.907C467.456 123.431 468.069 123.849 468.744 124.141H468.859C470.116 124.643 471.545 125.169 473.168 125.695C476.411 126.707 479.717 127.504 483.065 128.082C487.25 128.805 491.492 129.152 495.739 129.122C505.392 129.122 512.787 127.18 517.922 123.295C520.331 121.542 522.281 119.231 523.605 116.561C524.928 113.892 525.586 110.942 525.522 107.962C525.522 102.15 523.556 97.7593 519.625 94.789Z" fill="#4A2564"/>
<path d="M278.795 94.788C274.833 91.8172 269.271 89.8562 262.109 88.904L248.909 87.2242C246.055 87 243.28 86.1831 240.76 84.8249C239.862 84.3177 239.121 83.5723 238.619 82.6715C238.117 81.7707 237.874 80.7486 237.914 79.718C237.914 74.4624 242.916 71.8343 252.921 71.8343C256.132 71.8014 259.34 72.0809 262.497 72.6686C264.911 73.1411 267.287 73.7903 269.606 74.6106C269.937 74.7364 270.189 74.8622 270.497 74.9763C270.63 75.0434 270.768 75.1004 270.909 75.148C271.56 75.3884 272.249 75.512 272.943 75.5136C274.089 75.5092 275.208 75.167 276.161 74.529C277.113 73.891 277.855 72.9862 278.295 71.9283C278.734 70.8698 278.851 69.7056 278.631 68.5811C278.411 67.4567 277.864 66.4222 277.058 65.6075C276.528 65.0752 275.899 64.6519 275.206 64.3622C274.726 64.1335 274.246 63.9166 273.709 63.6996C268.749 61.7118 261.785 60.7176 252.818 60.7176C248.216 60.6287 243.624 61.1744 239.172 62.3397C235.857 63.2003 232.749 64.7151 230.029 66.7957C227.827 68.5336 226.075 70.7753 224.92 73.3312C223.834 75.7966 223.281 78.4638 223.298 81.1573C223.22 83.9956 223.82 86.8116 225.046 89.3725C226.201 91.6271 227.863 93.5825 229.903 95.085C232.146 96.7479 234.659 98.0116 237.332 98.8213C240.429 99.7668 243.616 100.395 246.84 100.695L256.932 101.837C261.595 102.352 264.829 103.243 266.635 104.488C267.521 105.094 268.237 105.918 268.714 106.881C269.19 107.843 269.41 108.911 269.355 109.984C269.392 111.314 268.995 112.62 268.224 113.704C267.452 114.788 266.349 115.592 265.08 115.993C261.561 117.272 257.829 117.866 254.086 117.742C250.881 117.766 247.68 117.506 244.52 116.965C241.872 116.518 239.256 115.891 236.692 115.091C235.092 114.577 233.732 114.085 232.497 113.594L232.292 113.514C231.613 113.254 230.893 113.122 230.166 113.126C228.836 113.131 227.548 113.594 226.519 114.436C225.49 115.278 224.782 116.448 224.514 117.751C224.246 119.053 224.434 120.408 225.047 121.588C225.66 122.768 226.66 123.701 227.88 124.231H227.995C229.252 124.734 230.68 125.259 232.303 125.785C235.546 126.797 238.852 127.595 242.201 128.173C246.386 128.895 250.627 129.243 254.875 129.212C264.528 129.212 271.922 127.27 277.058 123.386C279.497 121.634 281.472 119.313 282.812 116.625C284.153 113.938 284.818 110.964 284.749 107.961C284.749 102.15 282.764 97.7583 278.795 94.788Z" fill="#4A2564"/>
<path d="M361.306 73.9049C360.06 71.2634 358.227 68.9423 355.946 67.1183C353.339 65.0527 350.381 63.4737 347.215 62.4565C343.366 61.2314 339.344 60.6409 335.306 60.7086C330.511 60.6577 325.749 61.5143 321.272 63.2332C317.125 64.8363 313.343 67.257 310.152 70.3514C306.96 73.4654 304.45 77.2084 302.781 81.3429C300.966 85.8391 300.065 90.6507 300.129 95.4987C300.034 100.439 300.955 105.347 302.838 109.917C304.535 113.94 307.071 117.555 310.277 120.52C313.454 123.431 317.197 125.656 321.272 127.056C325.621 128.55 330.193 129.295 334.792 129.26C337.978 129.281 341.16 129.021 344.3 128.484C346.88 128.038 349.43 127.431 351.934 126.667C353.009 126.335 353.992 125.982 354.894 125.627C355.613 125.326 356.265 124.887 356.815 124.336C357.379 123.787 357.824 123.126 358.121 122.397C358.418 121.668 358.561 120.885 358.541 120.097C358.541 119.405 358.425 118.717 358.198 118.064C358.012 117.537 357.75 117.04 357.42 116.59C357.235 116.333 357.032 116.089 356.815 115.858C356.261 115.295 355.599 114.851 354.868 114.552C354.137 114.254 353.353 114.107 352.563 114.122C351.781 114.119 351.004 114.266 350.278 114.556C349.843 114.727 349.42 114.888 348.94 115.048C347.272 115.608 345.565 116.044 343.831 116.35C341.783 116.706 339.706 116.878 337.626 116.864C330.982 116.864 325.874 115.504 322.3 112.785C320.576 111.524 319.121 109.932 318.02 108.101C316.919 106.271 316.194 104.239 315.889 102.125C317.614 102.205 319.237 102.274 320.746 102.319C322.254 102.365 323.866 102.319 325.592 102.319C331.751 102.43 337.907 101.932 343.969 100.834C348.015 100.131 351.909 98.7318 355.478 96.6981C358.047 95.2213 360.12 93.0143 361.432 90.3572C362.579 87.7727 363.152 84.9696 363.112 82.1425C363.126 79.2969 362.509 76.4837 361.306 73.9049ZM347.992 85.673C347.292 87.0682 346.162 88.2016 344.769 88.9061C342.616 90.0189 340.302 90.79 337.912 91.1914C334.11 91.8675 330.252 92.17 326.392 92.0939H320.963C319.146 92.0939 317.249 92.0939 315.249 91.9681C315.336 89.4469 315.838 86.9574 316.735 84.5989C317.614 82.27 318.911 80.1211 320.563 78.258C322.255 76.363 324.327 74.8448 326.643 73.802C329.29 72.6333 332.162 72.0602 335.055 72.1223C338.457 72.002 341.825 72.8458 344.769 74.5557C346.034 75.31 347.069 76.3948 347.764 77.6932C348.459 78.9916 348.787 80.4549 348.712 81.9255C348.729 83.2105 348.485 84.4859 347.992 85.673Z" fill="#4A2564"/>
<path d="M803.942 88.2534C804.06 83.8534 803.198 79.4818 801.42 75.457C799.842 72.0511 797.415 69.1104 794.366 66.9224C791.122 64.683 787.476 63.0994 783.622 62.2607C779.058 61.2234 774.393 60.7213 769.711 60.7643C766.205 60.7101 762.698 60.9701 759.235 61.541C756.937 61.9106 754.716 62.6314 752.641 63.6776C752.333 63.8493 752.07 64.0204 751.796 64.2032L751.517 64.3749C751.231 64.5751 750.963 64.797 750.706 65.0375C749.889 65.8527 749.335 66.8928 749.106 68.0257C748.882 69.158 749 70.3317 749.442 71.398C749.883 72.4643 750.639 73.3752 751.601 74.0143C752.563 74.6534 753.692 74.9928 754.845 74.9889C755.594 74.994 756.332 74.8581 757.026 74.5891H757.144L757.625 74.4063C761.439 73.1582 765.438 72.5901 769.449 72.7266C772.133 72.7092 774.807 72.9234 777.453 73.3662C779.656 73.7051 781.77 74.4823 783.667 75.6515C785.423 76.8073 786.827 78.4188 787.738 80.3127C788.807 82.6623 789.316 85.2284 789.221 87.8078C787.761 87.6406 785.563 87.446 782.626 87.2251C779.695 87.0043 776.597 86.8751 773.336 86.8371C768.47 86.7515 763.609 87.2078 758.844 88.1964C755.387 88.8814 752.11 90.2653 749.212 92.2638C746.846 93.9619 745.006 96.2948 743.91 98.9933C742.774 101.965 742.226 105.126 742.288 108.305C742.288 110.973 742.746 113.62 743.647 116.132C744.654 118.806 746.41 121.136 748.698 122.85C751.718 125.059 755.147 126.644 758.788 127.511C764.185 128.805 769.728 129.392 775.282 129.259C778.638 129.259 781.871 129.171 784.981 128.996C788.08 128.825 790.893 128.631 793.393 128.414C794.467 128.323 795.485 128.231 796.447 128.128C798.444 128.092 800.357 127.309 801.805 125.934C802.521 125.232 803.081 124.392 803.461 123.464C803.836 122.537 804.02 121.543 803.998 120.542C803.998 120.542 803.998 120.473 803.998 120.439L803.942 88.2534ZM789.338 117.354C788.577 117.529 787.023 117.769 784.673 118.074C781.541 118.412 778.387 118.561 775.232 118.519C772.268 118.566 769.298 118.329 766.378 117.811C764.387 117.478 762.474 116.777 760.74 115.743C759.465 114.957 758.458 113.807 757.837 112.441C757.261 111.092 756.97 109.636 756.992 108.168C756.992 104.36 758.329 101.579 761.003 99.8276C763.682 98.0757 767.95 97.1956 773.817 97.1883C777.38 97.1251 780.943 97.2968 784.478 97.7022C786.855 98.045 788.466 98.3078 789.338 98.4794V117.354Z" fill="#4A2564"/>
<path d="M0.000302684 94.366C0.000302684 94.366 -0.548284 0.415407 45.0635 0.164062C45.0635 0.164062 138.264 20.3298 111.178 86.9968C111.178 86.9968 84.0807 72.978 67.5773 73.6635C67.5773 73.6635 51.0745 135.931 114.538 141.073C170.8 145.643 188.252 94.9833 188.252 94.9833C188.252 126.106 114.538 189.219 49.8177 189.974C43.8402 190.042 -0.0568602 193.401 0.000302684 94.3431" fill="#4A2564"/>
<path fill-rule="evenodd" clip-rule="evenodd" d="M69.6014 1.70607C61.5186 0.173232 53.2736 -0.32968 45.0645 0.209354C63.8068 5.16797 81.7387 14.3883 95.3498 28.4985C122.23 56.4337 121.773 94.1488 86.4012 110.841C83.4184 112.246 82.8244 113.755 85.2585 116.314C98.2645 131.475 124.813 136.88 148.516 129.533C165.019 124.46 184.87 109.55 188.322 95.0396C188.322 94.4916 188.322 93.8972 188.322 93.3945C187.476 78.8959 175.019 64.6943 165.27 54.7652C153.419 42.8374 121.567 11.6004 69.6014 1.70607Z" fill="#EA5B0C"/>
</svg>
