<svg width="683" height="175" viewBox="0 0 683 175" fill="none" xmlns="http://www.w3.org/2000/svg">
<path d="M224.974 121.703C222.88 120.575 221.269 118.161 221.269 114.944C221.269 110.607 224.652 107.09 229.179 107.09C230.782 107.09 232.24 107.561 233.36 108.205C241.594 113.675 250.142 116.41 257.87 116.41C266.254 116.41 271.09 112.869 271.09 107.235V106.916C271.09 100.324 262.066 98.077 252.062 95.025C239.493 91.485 225.465 86.346 225.465 70.1055V69.7798C225.465 53.7001 238.846 43.8967 255.777 43.8967C264.809 43.8967 274.318 46.4727 282.541 50.807C285.29 52.2585 287.215 54.8319 287.215 58.1992C287.215 62.7058 283.674 66.0894 279.159 66.0894C277.538 66.0894 276.572 65.7668 275.296 65.1199C268.351 61.5784 261.259 59.324 255.295 59.324C247.712 59.324 243.358 62.8696 243.358 67.6959V68.0086C243.358 74.2808 252.548 76.8464 262.548 80.0682C274.963 83.9294 288.991 89.5529 288.991 104.825V105.151C288.991 122.995 275.118 131.827 257.386 131.827C246.59 131.827 234.819 128.463 224.974 121.703Z" fill="#5FB832"/>
<path d="M364.576 87.9464V87.6208C364.576 71.2298 353.448 60.4569 340.233 60.4569C327.012 60.4569 315.404 71.3891 315.404 87.6208V87.9464C315.404 104.184 327.012 115.127 340.233 115.127C353.615 115.127 364.576 104.669 364.576 87.9464ZM296.373 53.697C296.373 48.2409 300.56 43.8937 306.054 43.8937C311.532 43.8937 315.886 48.2409 315.886 53.697V59.4932C322.175 50.655 331.04 43.5784 344.91 43.5784C364.9 43.5784 384.412 59.3265 384.412 87.6208V87.9464C384.412 116.085 365.063 131.997 344.91 131.997C330.722 131.997 321.853 124.915 315.886 117.054V147.101C315.886 152.587 311.532 156.768 306.054 156.768C300.736 156.768 296.373 152.587 296.373 147.101V53.697Z" fill="#5FB832"/>
<path d="M391.803 53.7083C391.803 48.2525 395.983 43.9049 401.467 43.9049C406.962 43.9049 411.31 48.2525 411.31 53.7083V58.3856C412.283 51.1004 424.203 43.9049 432.753 43.9049C438.876 43.9049 442.428 47.9209 442.428 53.5449C442.428 58.6854 439.039 62.0675 434.685 62.8692C420.818 65.2818 411.31 77.3803 411.31 94.1184V122.166C411.31 127.477 406.962 131.815 401.467 131.815C396.15 131.815 391.803 127.633 391.803 122.166V53.7083Z" fill="#5FB832"/>
<path d="M449.807 53.7475C449.807 48.2829 454.013 43.9353 459.486 43.9353C464.966 43.9353 469.321 48.2829 469.321 53.7475V122.181C469.321 127.64 464.966 131.815 459.486 131.815C454.161 131.815 449.807 127.64 449.807 122.181V53.7475Z" fill="#5FB832"/>
<path d="M479.155 53.7854C479.155 48.3208 483.35 43.9835 488.823 43.9835C494.311 43.9835 498.662 48.3208 498.662 53.7854V57.777C504.154 49.8968 512.042 43.9342 525.262 43.9342C544.45 43.9342 555.582 56.8015 555.582 76.4127V122.17C555.582 127.633 551.383 131.819 545.903 131.819C540.422 131.819 536.071 127.633 536.071 122.17V82.3634C536.071 69.1868 529.461 61.6248 517.85 61.6248C506.565 61.6248 498.662 69.5021 498.662 82.695V122.17C498.662 127.633 494.311 131.819 488.823 131.819C483.506 131.819 479.155 127.633 479.155 122.17V53.7854Z" fill="#5FB832"/>
<path d="M607.152 114.948C593.757 114.948 582.804 104.495 582.804 87.773V87.4574C582.804 71.062 593.921 60.289 607.152 60.289C620.376 60.289 631.984 71.2243 631.984 87.4574V87.773C631.984 104.015 620.376 114.948 607.152 114.948ZM641.317 43.7258C635.844 43.7258 631.49 48.076 631.49 53.5336V59.3195C625.195 50.4812 616.337 43.4087 602.478 43.4087C582.473 43.4087 562.97 59.1572 562.97 87.4574V87.773C562.97 115.911 582.313 131.818 602.478 131.818C616.582 131.818 625.429 124.821 631.4 116.999C630.423 132.286 621.037 140.357 604.574 140.357C594.746 140.357 586.196 137.937 578.445 133.589C577.479 133.118 576.368 132.8 574.912 132.8C570.397 132.8 566.678 136.502 566.678 140.829C566.678 144.529 568.777 147.262 572.173 148.548C582.477 153.534 593.111 156.107 605.049 156.107C620.376 156.107 632.311 152.412 640.05 144.691C647.129 137.612 651 127.014 651 112.698V53.5336C651 48.076 646.809 43.7258 641.317 43.7258Z" fill="#5FB832"/>
<path d="M469.398 20.5096C469.398 25.919 464.991 30.3174 459.559 30.3174C454.123 30.3174 449.728 25.919 449.728 20.5096C449.728 15.0853 454.123 10.7062 459.559 10.7062C464.991 10.7062 469.398 15.0853 469.398 20.5096Z" fill="#5FB832"/>
<path d="M159.519 126.005C137.89 154.739 91.6875 145.04 62.0654 146.435C62.0654 146.435 56.8215 146.726 51.5398 147.593C51.5398 147.593 53.5369 146.743 56.084 145.868C76.8889 138.694 86.7208 137.252 99.3624 130.778C123.115 118.646 146.754 92.2198 151.564 64.768C142.523 91.1706 115.026 113.895 89.989 123.122C72.8522 129.427 41.8617 135.564 41.8572 135.566C41.8717 135.588 40.6222 134.92 40.6047 134.905C19.5288 124.681 18.9207 79.1661 57.1987 64.4946C73.9814 58.0574 90.0344 61.593 108.177 57.2872C127.527 52.6999 149.938 38.2377 159.048 19.33C169.26 49.5319 181.527 96.783 159.519 126.005ZM159.895 9.97121C157.32 16.0709 154.178 21.5674 150.555 26.4837C134.61 10.1665 112.354 5.60723e-07 87.7541 5.60723e-07C39.3637 5.60723e-07 0 39.2539 0 87.495C0 112.785 10.8261 135.593 28.0863 151.58L30.008 153.277C26.7989 150.668 26.3055 145.969 28.9064 142.766C31.5233 139.562 36.2404 139.066 39.451 141.661C42.6702 144.261 43.1607 148.972 40.5542 152.18C37.9573 155.39 33.2316 155.875 30.0167 153.285L31.3244 154.44C46.5921 167.257 66.273 175 87.7541 175C134.008 175 171.988 139.109 175.24 93.8092C177.647 71.629 171.077 43.4652 159.895 9.97121Z" fill="#5FB832"/>
<path d="M673.845 49.8533H670.779V53.8997H673.845C674.837 53.8997 675.922 53.1009 675.922 51.9243C675.922 50.652 674.837 49.8533 673.845 49.8533ZM675.736 59.8708L672.76 55.3557H670.779V59.8708H669.178V48.441H673.845C675.781 48.441 677.575 49.8085 677.575 51.9243C677.575 54.4625 675.305 55.3105 674.647 55.3105L677.716 59.8708H675.736ZM672.998 45.6664C668.279 45.6664 664.504 49.4291 664.504 54.1357C664.504 58.7897 668.279 62.6016 672.998 62.6016C677.664 62.6016 681.488 58.7897 681.488 54.1357C681.488 49.4291 677.664 45.6664 672.998 45.6664ZM672.998 64.1084C667.476 64.1084 662.995 59.6378 662.995 54.1357C662.995 48.581 667.476 44.1601 672.998 44.1601C678.564 44.1601 683 48.581 683 54.1357C683 59.6378 678.564 64.1084 672.998 64.1084Z" fill="#5FB832"/>
</svg>
