<svg width="496" height="220" viewBox="0 0 496 220" fill="none" xmlns="http://www.w3.org/2000/svg">
<path d="M188.407 108.523C181.801 108.523 176.429 110.479 172.31 114.388C168.192 118.301 166.103 123.43 166.103 129.714C166.103 132.971 166.622 135.94 167.644 138.661C168.667 141.388 170.257 143.913 172.396 146.196C174.535 148.48 178.816 151.583 185.196 155.528C193.025 160.308 198.149 164.187 200.608 167.215C203.069 170.241 204.289 173.413 204.289 176.719C204.289 181.146 202.832 184.68 199.837 187.336C196.837 189.993 192.825 191.317 187.85 191.317C182.604 191.317 178.033 189.468 174.109 185.795C170.184 182.117 168.202 177.252 168.158 171.154H165.718V193.287H168.158C168.903 191.191 169.934 190.119 171.283 190.119C171.932 190.119 173.453 190.566 175.821 191.403C181.583 193.453 186.314 194.442 190.034 194.442C196.443 194.442 201.914 192.198 206.473 187.636C211.024 183.076 213.322 177.575 213.322 171.154C213.322 166.175 211.805 161.744 208.827 157.883C205.849 154.017 200.058 149.519 191.404 144.355C183.957 139.88 179.122 136.236 176.891 133.396C174.656 130.559 173.509 127.421 173.509 123.977C173.509 120.253 174.877 117.261 177.576 115.03C180.275 112.797 183.811 111.691 188.236 111.691C193.215 111.691 197.366 113.169 200.651 116.143C203.932 119.123 205.829 123.252 206.387 128.558H208.827V109.379H206.558C206.281 110.357 206.024 110.982 205.788 111.263C205.558 111.542 205.117 111.691 204.461 111.691C203.671 111.691 202.264 111.359 200.265 110.706C195.984 109.264 192.037 108.523 188.407 108.523ZM268.162 108.523C260.112 108.523 252.803 110.42 246.2 114.217C239.587 118.006 234.352 123.268 230.489 129.971C226.628 136.673 224.71 143.79 224.71 151.376C224.71 161.566 228.046 170.645 234.77 178.603C241.498 186.555 249.56 191.511 258.915 193.415C261.054 194.529 264.114 197.406 268.119 202.063C272.633 207.317 276.452 211.107 279.592 213.364C282.729 215.623 286.116 217.278 289.695 218.373C293.278 219.464 297.151 220 301.34 220C306.412 220 310.953 219.118 314.953 217.303L314.054 215.077C311.732 215.914 309.256 216.318 306.648 216.318C303.108 216.318 299.531 215.151 295.946 212.808C292.365 210.459 287.887 205.977 282.546 199.366C280.036 196.198 278.303 194.199 277.323 193.415C287.558 191.416 295.975 186.456 302.538 178.517C309.1 170.582 312.385 161.526 312.385 151.376C312.385 139.324 308.097 129.196 299.584 120.938C291.065 112.679 280.589 108.523 268.162 108.523ZM317.95 108.523L318.078 111.134C323.438 111.134 326.44 112.713 327.111 115.886C327.361 117.022 327.476 119.118 327.496 122.136L327.454 179.887C327.409 184.2 326.794 186.954 325.613 188.149C324.429 189.336 322.429 190.079 319.534 190.375L319.405 192.987H372.832L374.202 179.887H371.762C371.065 183.456 369.467 186.012 366.924 187.464C364.375 188.927 359.866 189.648 353.354 189.648H348.302C342.442 189.648 339.052 187.529 338.156 183.269C337.971 182.426 337.908 181.523 337.899 180.529L338.113 122.136C338.112 117.83 338.656 114.944 339.783 113.532C340.922 112.124 342.975 111.336 345.948 111.134L345.819 108.523H317.95ZM269.018 111.691C278.097 111.691 285.51 115.267 291.236 122.479C296.961 129.694 299.798 139.582 299.798 152.103C299.798 163.968 296.92 173.469 291.151 180.615C285.382 187.759 277.703 191.317 268.162 191.317C258.995 191.317 251.562 187.648 245.858 180.272C240.159 172.897 237.339 163.322 237.339 151.547C237.339 139.447 240.193 129.761 245.944 122.522C251.69 115.29 259.386 111.691 269.018 111.691ZM391.882 124.106C390.579 124.106 389.586 124.546 388.843 125.433C388.083 126.316 387.85 127.387 388.115 128.686C388.372 129.947 389.083 131.052 390.213 131.983C391.336 132.912 392.549 133.396 393.852 133.396C395.112 133.396 396.073 132.912 396.763 131.983C397.453 131.052 397.664 129.947 397.405 128.686C397.14 127.387 396.453 126.316 395.393 125.433C394.321 124.546 393.143 124.106 391.882 124.106ZM427.115 132.967C424.901 141.485 420.101 146.095 412.731 146.838L412.817 149.278H421.421L421.25 178.132C421.264 183.065 421.414 186.349 421.764 188.021C422.611 192.023 425.225 194.057 429.598 194.057C435.925 194.057 442.563 190.203 449.505 182.498L447.407 180.7C442.395 185.774 437.963 188.321 434.093 188.321C431.715 188.321 430.24 186.953 429.684 184.254C429.531 183.598 429.47 182.832 429.47 181.942L429.555 149.278H442.698L442.57 145.382H429.598V132.967H427.115ZM477.93 143.841C470.579 143.841 464.599 147.41 459.95 154.501C455.325 161.604 453.893 169.473 455.712 178.132C456.782 183.203 458.914 187.134 462.176 189.905C465.433 192.674 469.565 194.057 474.506 194.057C479.105 194.057 485.509 192.893 488.205 190.547C490.907 188.202 493.397 184.404 495.697 179.202L493.856 177.276C490.188 184.024 482.785 187.422 477.203 187.422C469.528 187.422 464.827 183.211 463.075 174.835C462.848 173.766 462.678 172.618 462.562 171.411C471.692 169.965 478.612 167.405 483.282 163.705C487.948 160.003 492.633 156.078 491.758 151.932C491.237 149.469 489.958 147.531 487.991 146.067C485.997 144.604 480.823 143.841 477.93 143.841ZM397.576 144.141L381.737 147.78V150.605L387.216 149.92C389.87 149.92 391.432 151.122 391.925 153.516C392.091 154.317 392.196 155.443 392.225 156.855L392.054 182.755C392.009 186.339 391.612 188.423 390.812 189.048C390.006 189.675 387.879 189.99 384.434 189.99L384.348 192.43H409.477L409.435 189.99C405.943 189.99 403.679 189.715 402.671 189.177C401.679 188.642 400.996 187.67 400.701 186.18C400.474 185.107 400.374 183.257 400.359 180.7L400.445 144.141H397.576ZM473.906 148.935C475.435 148.935 476.913 149.526 478.401 150.691C479.869 151.851 480.763 153.142 481.056 154.544C482.489 161.429 476.384 166.19 462.647 168.842C462.255 163.821 463.125 159.263 465.344 155.143C467.546 151.026 470.415 148.935 473.906 148.935Z" fill="#003B57"/>
<path d="M152.926 9.63916H16.6109C7.47495 9.63916 0 17.1155 0 26.2511V176.581C0 185.716 7.47495 193.191 16.6109 193.191H106.392C105.372 148.519 120.627 61.825 152.926 9.63916Z" fill="#0F80CC"/>
<path d="M147.974 14.4854H16.6117C10.1247 14.4854 4.8457 19.763 4.8457 26.2512V165.613C34.5965 154.195 79.2489 144.342 110.123 144.79C116.327 112.349 134.562 48.7719 147.974 14.4854Z" fill="url(#paint0_linear_1099_199)"/>
<path d="M184.722 4.71933C175.386 -3.60634 164.082 -0.262027 152.926 9.63905C151.27 11.11 149.618 12.7419 147.974 14.4851C128.889 34.7308 111.174 72.2323 105.671 100.872C107.815 105.22 109.489 110.768 110.592 115.006C110.875 116.094 111.13 117.114 111.334 117.982C111.818 120.037 112.079 121.369 112.079 121.369C112.079 121.369 111.907 120.722 111.205 118.686C111.072 118.296 110.923 117.869 110.746 117.368C110.671 117.16 110.566 116.909 110.452 116.64C109.207 113.746 105.763 107.638 104.248 104.978C102.951 108.802 101.806 112.379 100.847 115.616C105.222 123.621 107.888 137.34 107.888 137.34C107.888 137.34 107.657 136.451 106.558 133.348C105.582 130.603 100.72 122.085 99.5686 120.094C97.5987 127.366 96.8159 132.276 97.5218 133.471C98.8922 135.788 100.197 139.784 101.344 144.204C103.933 154.162 105.732 166.284 105.732 166.284C105.732 166.284 105.791 167.087 105.888 168.323C105.529 176.685 105.744 185.355 106.392 193.191C107.25 203.564 108.864 212.476 110.923 217.245L112.32 216.483C109.298 207.087 108.07 194.773 108.608 180.572C109.421 158.866 114.416 132.689 123.646 105.405C139.239 64.2183 160.873 31.1724 180.674 15.391C162.627 31.6896 138.201 84.4468 130.889 103.984C122.702 125.861 116.901 146.391 113.404 166.061C119.437 147.621 138.943 139.694 138.943 139.694C138.943 139.694 148.51 127.895 159.69 111.039C152.993 112.566 141.996 115.181 138.312 116.729C132.879 119.008 131.415 119.786 131.415 119.786C131.415 119.786 149.015 109.068 164.115 104.215C184.881 71.5079 207.505 25.0438 184.722 4.71933Z" fill="#003B57"/>
<defs>
<linearGradient id="paint0_linear_1099_199" x1="87.376" y1="17.5781" x2="87.376" y2="157.208" gradientUnits="userSpaceOnUse">
<stop stop-color="#97D9F6"/>
<stop offset="0.920245" stop-color="#0F80CC"/>
<stop offset="1" stop-color="#0F80CC"/>
</linearGradient>
</defs>
</svg>
