<svg width="524" height="185" viewBox="0 0 524 185" fill="none" xmlns="http://www.w3.org/2000/svg">
<path fill-rule="evenodd" clip-rule="evenodd" d="M172.478 0.0372314H214.89L107.797 185L0 0.0372314H43.3768L107.797 111.388L172.478 0.0372314Z" fill="#41B883"/>
<path fill-rule="evenodd" clip-rule="evenodd" d="M132.4 0H172.737L107.744 111.583L43.2734 0H82.9804L107.744 42.9578L132.4 0Z" fill="#35495E"/>
<path fill-rule="evenodd" clip-rule="evenodd" d="M240.2 36.5148C240.2 35.1503 240.956 34.0133 242.467 33.1035C243.979 32.1939 245.559 31.739 247.208 31.739C249.498 31.739 250.918 32.6032 251.468 34.3317L275.652 115.383L299.698 34.3317C300.339 32.6033 301.713 31.739 303.82 31.739C305.561 31.739 307.187 32.2393 308.698 33.24C310.21 34.2406 310.966 35.3777 310.966 36.6513C310.966 36.7422 310.943 36.8787 310.897 37.0606C310.851 37.2425 310.828 37.4245 310.828 37.6064L282.934 128.346C281.927 130.984 279.499 132.303 275.652 132.303C271.804 132.303 269.468 130.984 268.644 128.346L240.476 37.6064C240.293 37.0606 240.2 36.6968 240.2 36.5148ZM312.048 106.376V70.9002C312.048 69.8085 312.621 68.8534 313.766 68.0347C314.911 67.216 316.262 66.8067 317.82 66.8067C319.285 66.8067 320.591 67.2388 321.736 68.1029C322.881 68.9671 323.453 69.8995 323.453 70.9001V106.376C323.453 110.47 325.011 114.154 328.125 117.429C331.24 120.703 334.95 122.341 339.255 122.341C343.469 122.341 347.133 120.726 350.248 117.497C353.363 114.268 354.92 110.561 354.92 106.376V70.7616C354.92 69.7609 355.492 68.8513 356.638 68.0327C357.783 67.214 359.134 66.8046 360.691 66.8046C362.34 66.8046 363.691 67.1912 364.745 67.9644C365.798 68.7377 366.325 69.6701 366.325 70.7616V106.376C366.325 113.381 363.645 119.498 358.287 124.729C352.928 129.959 346.584 132.575 339.256 132.575C331.836 132.575 325.446 129.959 320.087 124.729C314.728 119.498 312.048 113.381 312.048 106.376ZM375.65 106.103V91.7761C375.65 84.7716 378.33 78.7225 383.688 73.6282C389.047 68.5341 395.483 65.9871 402.994 65.9871C410.14 65.9871 416.323 68.375 421.545 73.1508C426.766 77.9265 429.377 83.9075 429.377 91.0939C429.377 93.7319 429.056 95.8469 428.415 97.439C427.774 99.031 426.789 100.168 425.461 100.85C424.132 101.533 422.896 101.965 421.751 102.147C420.606 102.328 419.071 102.42 417.147 102.42H387.054V106.513C387.054 111.516 388.864 115.519 392.482 118.521C396.101 121.523 400.795 123.023 406.566 123.023C409.59 123.023 412.223 122.569 414.467 121.659C416.712 120.749 418.521 119.862 419.895 118.998C421.269 118.134 422.368 117.702 423.193 117.702C424.475 117.702 425.575 118.271 426.491 119.408C427.407 120.545 427.865 121.705 427.865 122.887C427.865 124.979 425.781 127.117 421.613 129.3C417.445 131.483 412.292 132.575 406.154 132.575C397.177 132.575 389.849 130.142 384.169 125.275C378.489 120.408 375.65 114.017 375.65 106.103ZM387.055 94.7781H412.475C414.857 94.7781 416.46 94.4825 417.285 93.8912C418.11 93.2999 418.522 92.1401 418.522 90.4118C418.522 86.3183 417.01 82.7251 413.987 79.6322C410.964 76.5393 407.254 74.9928 402.857 74.9928C398.552 74.9928 394.842 76.4255 391.727 79.2909C388.612 82.1563 387.055 85.6813 387.055 89.8657L387.055 94.7781ZM435.131 125.206C435.131 123.205 435.818 121.499 437.192 120.089C438.567 118.679 440.261 117.974 442.277 117.974C444.2 117.974 445.849 118.679 447.223 120.089C448.597 121.499 449.284 123.205 449.284 125.206C449.284 127.116 448.597 128.776 447.223 130.186C445.849 131.596 444.2 132.301 442.277 132.301C440.261 132.301 438.567 131.596 437.192 130.186C435.818 128.776 435.131 127.116 435.131 125.206ZM445.282 157.818C445.282 156.362 445.74 155.157 446.657 154.202C447.573 153.247 448.672 152.769 449.954 152.769C453.527 152.769 455.863 151.45 456.962 148.812C458.062 146.174 458.611 142.217 458.611 136.941V70.7627C458.611 69.5801 459.138 68.625 460.191 67.8972C461.245 67.1695 462.596 66.8056 464.245 66.8056C465.894 66.8056 467.268 67.1695 468.367 67.8972C469.466 68.625 470.016 69.5801 470.016 70.7627V136.941C470.016 144.855 468.459 151.132 465.344 155.771C462.23 160.411 457.512 162.73 451.191 162.73C447.252 162.73 445.282 161.093 445.282 157.818ZM457.099 42.5174C457.099 40.7891 457.787 39.2882 459.161 38.0146C460.535 36.7411 462.229 36.1043 464.245 36.1043C466.168 36.1043 467.817 36.7411 469.191 38.0146C470.565 39.2881 471.252 40.7891 471.252 42.5174C471.252 44.2458 470.565 45.7696 469.191 47.0885C467.817 48.4075 466.168 49.0671 464.245 49.0671C462.321 49.0671 460.649 48.4076 459.229 47.0885C457.809 45.7695 457.099 44.2458 457.099 42.5174ZM478.518 122.203C478.518 121.021 478.907 119.861 479.686 118.724C480.465 117.587 481.404 117.018 482.503 117.018C483.236 117.018 484.289 117.564 485.663 118.656C487.037 119.747 489.007 120.816 491.572 121.862C494.136 122.908 497.159 123.431 500.64 123.431C505.221 123.431 508.541 122.613 510.603 120.975C512.664 119.338 513.694 117.291 513.694 114.835C513.694 111.833 512.549 109.445 510.259 107.671C507.969 105.897 505.175 104.556 501.877 103.646C498.579 102.736 495.281 101.736 491.984 100.644C488.686 99.5525 485.892 97.7331 483.602 95.186C481.311 92.639 480.166 89.2733 480.166 85.0888C480.166 79.9038 482.021 75.4237 485.731 71.6486C489.441 67.8735 495.098 65.986 502.701 65.986C507.556 65.986 511.999 66.7364 516.03 68.2374C520.061 69.7383 522.076 71.4439 522.076 73.3541C522.076 74.4457 521.641 75.6738 520.77 77.0383C519.9 78.4028 518.824 79.085 517.541 79.085C517.175 79.085 515.411 78.4255 512.251 77.1065C509.091 75.7875 505.953 75.1279 502.838 75.1279C498.625 75.1279 495.487 76.1058 493.426 78.0617C491.365 80.0174 490.334 82.2234 490.334 84.6795C490.334 87.2265 491.479 89.2279 493.77 90.6832C496.06 92.1387 498.877 93.2758 502.22 94.0945C505.564 94.9132 508.884 95.9139 512.182 97.0965C515.48 98.2792 518.274 100.303 520.564 103.168C522.854 106.034 524 109.741 524 114.289C524 119.929 521.984 124.386 517.954 127.661C513.923 130.936 508.289 132.573 501.052 132.573C494.823 132.573 489.51 131.459 485.113 129.23C480.716 127.002 478.518 124.659 478.518 122.203Z" fill="#010101"/>
</svg>
