<svg width="400" height="157" viewBox="0 0 400 157" fill="none" xmlns="http://www.w3.org/2000/svg">
<path d="M147.733 7.41553L114.066 93.3981L80.3998 1.53638L44.6665 93.3981L14.1333 7.41553H0L43.9332 127.938L79.9998 36.0764L113.666 127.938L161.866 7.41553H147.733ZM215.533 68.6789C210.066 63.9355 203.799 60.4615 197.533 57.6555C197.533 57.6555 180.666 49.0372 176.8 46.2981C172.933 43.5589 171.333 39.6172 171.333 34.9406C171.333 30.1972 173.266 25.9215 177.2 22.7815C181.133 19.6415 185.799 18.0381 191.333 18.0381C194.866 18.0381 197.999 18.8398 200.333 19.9755C202.666 21.5789 205.399 23.5164 207.399 26.6564C207.399 26.6564 209.333 29.3955 210.133 30.1972L219.933 23.5164C216.399 17.6372 212.466 13.2947 207.399 10.1547C202.333 7.01467 197.199 5.41127 191.333 5.41127C181.533 5.41127 173.733 8.15041 167.466 13.6287C161.2 19.107 158.066 26.1887 158.066 34.807C158.066 43.0245 160.8 49.3045 166.266 53.647C172.133 58.3904 188.999 66.6079 188.999 66.6079C195.266 69.7479 200.333 72.8879 204.666 75.627C208.999 78.767 211.333 83.1096 211.333 88.9887C211.333 95.6696 208.999 101.148 204.666 105.49C200.333 109.833 194.866 112.171 187.799 112.171C181.933 112.171 176.8 110.234 172.933 106.693C169 103.152 166.266 97.6738 164.733 90.993L152.2 94.9347C153.4 99.6781 154.933 103.553 156.933 107.495C158.866 111.036 161.666 114.176 164.8 116.915C171.066 121.992 178.533 124.798 187.933 124.798C197.733 124.798 206.333 121.257 213.399 114.576C220.466 107.896 223.999 99.2772 223.999 89.4564C223.733 80.1032 220.999 73.4223 215.533 68.6789ZM289.933 120.121C320.866 120.121 345.932 95.0015 345.932 64.0023C345.932 33.0032 320.866 7.88319 289.933 7.88319C258.999 7.88319 233.933 33.0032 233.933 64.0023C233.933 95.0015 259.399 120.121 289.933 120.121Z" fill="#FF7300"/>
<path d="M313.068 95.4027L289.934 39.6175L274.268 74.9593H234.734V67.4767H269.201L290.334 20.3767L313.868 77.6984L323.267 60.8627H346.001V68.2784H327.934L313.068 95.4027Z" fill="white"/>
<path d="M336.201 18.84C324.067 6.28 308.801 0 290.334 0C289.934 0 289.534 0 289.534 0C278.201 0 267.201 2.73914 257.401 8.61829C247.601 14.4974 239.801 22.3808 233.868 32.5357C227.934 42.6906 225.268 53.714 225.268 65.5392C225.268 83.1766 231.534 98.5425 244.068 111.103C256.601 123.663 271.867 129.943 290.267 129.943C308.267 129.943 323.601 123.663 336.134 111.103C348.667 98.5425 354.934 83.2434 354.934 65.1383C355.401 46.6991 349.134 30.9991 336.201 18.84ZM335.801 91.4608C331.067 99.6783 324.801 105.958 317.001 110.702C308.801 115.445 300.134 117.783 290.734 117.783C290.734 117.783 290.734 117.783 290.334 117.783C275.867 117.783 263.667 112.706 253.534 102.885C243.334 92.6634 238.268 80.5043 238.268 65.606C238.268 55.7851 240.601 46.766 244.934 38.5485C249.668 30.6651 255.934 24.0511 264.134 19.3077C272.334 14.5643 281.001 12.226 290.001 12.226C290.001 12.226 290.001 12.226 290.401 12.226C299.401 12.226 308.401 14.5643 316.267 19.3077C324.467 24.0511 330.734 30.3311 335.467 38.1477C340.201 46.0311 342.134 55.0502 342.134 64.8711C342.467 74.5583 340.067 83.5774 335.801 91.4608ZM359.667 60.8626C362.401 60.0609 365.534 59.66 369.067 59.66C377.667 59.66 384.734 62.3992 390.2 68.2783C395.667 73.7566 398.4 80.4375 398.4 88.3209C398.4 93.7992 397.2 98.9434 394.467 103.62C391.734 108.297 387 114.643 379.601 122.861L356.134 148.382H400V157H334.934L371.001 117.717C378.467 109.833 383.134 103.954 385.467 100.079C387.8 96.2042 388.6 92.1957 388.6 87.92C388.6 82.4417 386.667 78.0991 382.734 74.1574C378.801 70.2157 373.734 68.2783 368.267 68.2783C365.134 68.2783 362.001 68.6792 359.267 70.2157C359.267 68.2783 359.667 61.5975 359.667 60.8626Z" fill="black"/>
</svg>
